<?xml version="1.0" encoding="UTF-8"?>
<svg id="Capa_1" xmlns="http://www.w3.org/2000/svg" version="1.1" viewBox="0 0 512 512">
  <!-- Generator: Adobe Illustrator 29.4.0, SVG Export Plug-In . SVG Version: 2.1.0 Build 152)  -->
  <path d="M431.5,79.52C384.4,32.41,321.77,6.47,255.15,6.47S125.92,32.41,78.81,79.52C31.71,126.62,5.77,189.25,5.77,255.86s25.94,129.24,73.03,176.34c32.51,32.51,73.01,55.31,117.23,66.01l1.6,2.26,3.14-.66c.38-.09.75-.15,1.12-.25,17.39,3.78,35.31,5.67,53.26,5.67,66.62,0,129.25-25.95,176.35-73.04,47.1-47.1,73.04-109.73,73.04-176.34s-25.94-129.24-73.04-176.34ZM301.44,466c-4.28-1.09-8.54-2.32-12.75-3.68,12.97-8.83,25.16-18.94,36.35-30.12,47.1-47.1,73.04-109.73,73.04-176.34,0-4.81-.15-9.75-.44-14.71,7.59-6.02,14.92-12.55,21.75-19.4,13.71-13.69,25.71-28.84,35.83-45.15,10,25.19,15.07,51.8,15.07,79.26,0,49.55-17.24,97.9-48.54,136.16-30.68,37.45-73.35,63.69-120.32,73.99ZM308.71,47.44c26.59,6.81,51.36,18.54,73.62,34.86,21.52,15.8,39.7,35.16,54.07,57.58-11.16,22.83-26.07,43.23-44.42,60.81-10.3-45.82-33.32-87.56-66.93-121.17-10.17-10.16-21.22-19.46-32.95-27.74,5.49-1.68,11.05-3.13,16.62-4.34ZM243.06,260.57c-35.68,0-70.92-8.89-102.12-25.73,3.7-35.08,16.11-68.94,35.97-98.12,19.53-28.7,45.95-52.47,76.47-68.85,58.52,32.65,98.75,91.03,108.26,157.08-35.2,23.3-76.13,35.61-118.57,35.61ZM118.44,89.72c24.28-19.99,53.12-34.62,83.47-42.35,4.36,1.11,8.72,2.37,13.02,3.75-12.97,8.84-25.17,18.95-36.37,30.13-36.59,36.6-60.41,82.33-69.24,132.71-18.67-14.82-34.6-32.48-47.5-52.59,13.45-27.44,32.99-52.16,56.63-71.65ZM47.32,199.99c6.06,7.63,12.56,14.92,19.41,21.76,11.86,11.87,24.91,22.55,38.84,31.78-.02,1.41-.05,2.74-.05,4.06,0,66.6,25.95,129.24,73.04,176.33,10.19,10.19,21.23,19.49,32.95,27.75-3.18.97-6.39,1.87-9.61,2.69-45.29-11.54-86.28-38.15-115.48-75.01-30.37-38.32-46.42-84.48-46.42-133.49,0-18.96,2.48-37.73,7.32-55.87ZM172.71,372.03c-18.81-29.86-29.94-64.01-32.41-99.26,32.25,14.62,66.78,22.03,102.76,22.03,42.45,0,83.98-10.7,120.64-31.01-2.78,76.52-45.67,145.45-113.47,181.78-31.52-17.58-58.28-42.97-77.52-73.54Z"/>
</svg>