<?xml version="1.0" encoding="UTF-8"?>
<svg id="Capa_1" data-name="Capa 1" xmlns="http://www.w3.org/2000/svg" viewBox="0 0 1011.31 790.34">
  <defs>
    <style>
      .cls-1 {
        fill: #fff;
      }
    </style>
  </defs>
  <g>
    <path class="cls-1" d="M435.21,395.15c0,47.55-38.54,86.09-86.09,86.09h0c-47.57,0-86.11-38.54-86.11-86.09h0c0-47.55,38.54-86.09,86.11-86.09h0c47.55,0,86.09,38.54,86.09,86.09h0Z"/>
    <path class="cls-1" d="M748.33,395.18c0,49.72-40.27,90-90.01,90h0c-49.72,0-90.01-40.28-90.01-90h0c0-49.72,40.29-90.03,90.01-90.03h0c49.75,0,90.01,40.31,90.01,90.03h0Z"/>
  </g>
  <path class="cls-1" d="M987.47,185.22c-15.28-36.13-37.14-68.55-64.97-96.39-27.83-27.83-60.26-49.69-96.39-64.97-37.43-15.83-77.16-23.86-118.07-23.86h-404.74c-40.92,0-80.64,8.02-118.07,23.86-14.4,6.09-28.18,13.27-41.35,21.42-19.87,12.29-38.3,26.82-55.04,43.56-20.95,20.95-38.4,44.56-52.3,70.34-3.46,6.41-6.75,12.92-9.76,19.59-.97,2.15-1.99,4.27-2.92,6.46-6.71,15.85-11.92,32.14-15.81,48.73-5.29,22.58-8.05,45.75-8.05,69.34h0v183.75c0,40.92,8.02,80.64,23.86,118.07,15.28,36.13,37.14,68.55,64.97,96.39,27.83,27.83,60.26,49.69,96.39,64.97,37.43,15.83,77.16,23.86,118.07,23.86h404.74c40.92,0,80.64-8.02,118.07-23.86,13.55-5.73,26.57-12.39,39.03-19.94,20.77-12.58,39.96-27.64,57.35-45.04,25.89-25.89,46.53-55.79,61.59-88.9,1.13-2.49,2.31-4.96,3.38-7.48,15.84-37.43,23.86-77.16,23.86-118.07h0v-183.75c0-40.92-8.02-80.64-23.86-118.07h.02ZM937.64,373.79c-.15,1.61-.25,3.25-.25,4.92v47.04h.25v61.29c0,23.02-3.37,45.53-9.86,66.95-10.81,35.65-30.3,68.3-57.38,95.39-38.02,38.02-87.02,61.06-139.84,66.16-7.44.72-14.95,1.09-22.51,1.09h-342.92v-.45h-47.15c-2.24,0-4.42.18-6.55.45h-8.11c-61.32,0-118.98-23.88-162.35-67.25-43.36-43.37-67.25-101.03-67.25-162.35v-70.5c.15-1.61.25-3.25.25-4.92v-47.04h-.25v-61.29c0-23.04,3.37-45.55,9.88-66.99.35-1.16.79-2.29,1.16-3.44,8.57-26.67,22.02-51.59,39.91-73.69,5.1-6.3,10.49-12.41,16.3-18.22,43.37-43.37,101.03-67.26,162.35-67.26h342.92v.45h47.15c2.24,0,4.42-.18,6.55-.45h8.11c61.32,0,118.98,23.88,162.35,67.25,43.36,43.37,67.25,101.03,67.25,162.35v70.5h-.01Z"/>
</svg>