<?xml version="1.0" encoding="UTF-8"?>
<svg id="Capa_1" data-name="Capa 1" xmlns="http://www.w3.org/2000/svg" viewBox="0 0 128 81.49">
  <defs>
    <style>
      .cls-1 {
        fill: #fff;
      }
    </style>
  </defs>
  <path class="cls-1" d="M47.05,78.41c3.45-.71,6.44-2.04,8.98-3.99,2.25-1.69,4.13-3.77,5.63-6.25,2.36-3.74,3.54-7.96,3.54-12.68s-1.03-8.45-3.09-11.64c-2.07-3.2-5.13-5.54-9.18-7.01,2.67-1.36,4.69-2.87,6.07-4.53,2.45-2.94,3.68-6.85,3.68-11.7s-1.22-8.75-3.65-12.13C54.98,2.97,48.11.14,38.42,0H0v79.49h35.82c4.04,0,7.79-.36,11.23-1.08ZM15.86,13.8h17.29c3.81,0,6.94.41,9.39,1.24,2.85,1.18,4.27,3.63,4.27,7.33,0,3.34-1.08,5.67-3.23,6.98-2.15,1.31-4.95,1.97-8.41,1.97H15.86V13.8ZM15.86,65.68v-21.19h19.56c3.42.03,6.06.48,7.95,1.35,3.37,1.54,5.06,4.38,5.06,8.52,0,4.89-1.74,8.2-5.22,9.93-1.92.94-4.6,1.4-8.05,1.4H15.86Z"/>
  <g>
    <path class="cls-1" d="M78.66,74.25c5.98,4.83,12.88,7.23,20.7,7.23,9.48,0,16.85-2.86,22.11-8.58,3.39-3.6,5.29-7.14,5.7-10.62h-15.69c-.91,1.72-1.97,3.07-3.16,4.04-2.19,1.8-5.03,2.7-8.53,2.7-3.3,0-6.13-.74-8.47-2.21-3.86-2.37-5.91-6.51-6.15-12.41h42.81c.08-5.07-.09-8.96-.51-11.66-.71-4.61-2.28-8.66-4.68-12.15-2.67-3.96-6.06-6.86-10.16-8.7-4.09-1.83-8.7-2.75-13.82-2.75-8.61,0-15.62,2.72-21.02,8.15-5.4,5.43-8.1,13.24-8.1,23.42,0,10.87,2.99,18.71,8.97,23.54ZM89.64,35.18c2.18-2.24,5.23-3.36,9.17-3.36,3.63,0,6.67,1.06,9.12,3.16,2.45,2.11,3.81,5.21,4.09,9.29h-26.48c.56-3.83,1.92-6.86,4.09-9.1Z"/>
    <rect class="cls-1" x="80.54" y="4.57" width="34.54" height="8.02"/>
  </g>
</svg>