<?xml version="1.0" encoding="UTF-8"?>
<svg id="Capa_1" data-name="Capa 1" xmlns="http://www.w3.org/2000/svg" viewBox="0 0 106.32 127">
  <defs>
    <style>
      .cls-1 {
        fill: #fff;
      }
    </style>
  </defs>
  <path class="cls-1" d="M6.93,30.76l-4.47,46.38c2.29-2.39,5.15-5.42,8.65-9.18,3.98-4.36,6.52-7.08,7.62-8.17,1.1-1.09,2-1.63,2.71-1.63.62,0,1.18.47,1.67,1.41.5.94.74,2.27.74,3.97,0,.9-.49,2.1-1.46,3.61-.98,1.5-3.05,4.44-6.25,8.83-2.76,3.83-5.09,7.29-6.98,10.4-1.89,3.11-3.31,5.76-4.26,7.95-.94,2.19-1.42,3.82-1.42,4.88,0,1.97.92,2.95,2.75,2.95,1.95,0,6.35-2.5,13.21-7.49l-.08,2.75c-7.93,7.63-13.74,11.44-17.44,11.44-.86,0-1.24-.47-1.93-.63.25,4.09,3.1,6.23,8.88,8.41l18.87,7.11V37.84l-20.32-7.52c-.26,0-.48.19-.51.43Z"/>
  <path class="cls-1" d="M1.91,82.93l-.53,5.47c2.63-4.33,5.65-9.04,10.24-15.29-3.88,3.99-6.6,6.69-9.71,9.83Z"/>
  <path class="cls-1" d="M101.34,104.58c-1.25,1.05-2.34,1.84-3.27,2.38-.93.54-1.72.8-2.37.8-1.53,0-2.3-.85-2.3-2.55,0-1.37.48-2.96,1.43-4.76s2.32-3.93,4.11-6.37c-.88.46-1.72,1-2.51,1.59-.79.6-1.48,1.23-2.09,1.89-.61.65-1.12,1.21-1.53,1.68-1.28,1.35-2.51,2.73-3.68,4.15-1.18,1.42-1.97,2.34-2.39,2.76-.41.43-.81.64-1.18.64-1.53,0-2.3-1.78-2.3-5.33,0-.1.04-.22.05-.32-3.02,3.11-5.85,5.84-8.4,7.91-2.76,2.25-5.46,3.98-8.09,5.19-2.63,1.21-5.18,1.82-7.64,1.82-2.12,0-3.95-.4-5.47-1.2-1.52-.8-2.67-1.96-3.45-3.48-.78-1.53-1.17-3.34-1.17-5.43,0-1.65.28-3.39.84-5.23.56-1.84,1.37-3.7,2.43-5.58s2.36-3.82,3.91-5.81c1.54-2,3.35-4.1,5.44-6.3,2.16-2.27,4.29-4.24,6.4-5.9,2.1-1.66,4.01-2.96,5.72-3.9,1.71-.94,3.3-1.65,4.76-2.11,1.46-.46,2.68-.69,3.64-.69s1.82.22,2.51.66c.69.45,1.22,1.09,1.59,1.94.38.85.56,1.83.56,2.94,0,2.09-.76,4.42-2.27,6.98-1.51,2.56-3.4,5.04-5.66,7.42-2.26,2.39-4.42,4.33-6.47,5.84s-3.53,2.26-4.44,2.26c-.61,0-1.17-.23-1.7-.68-.52-.45-.78-.96-.78-1.54,0-1.06.59-2.33,1.79-3.83,1.19-1.5,2.48-2.87,3.89-4.12,1.4-1.25,2.25-1.87,2.52-1.87.14,0,.21.06.21.17,0,.17-.1.45-.31.86-.21.41-.31.66-.31.75,0,.15.06.22.18.22.33,0,1.3-.84,2.89-2.53,1.59-1.68,3.05-3.54,4.38-5.56,1.33-2.03,1.99-3.69,1.99-4.98,0-.53-.12-.95-.37-1.24-.24-.29-.61-.43-1.11-.43-1.37,0-3.46,1.05-6.26,3.15-2.8,2.1-5.67,4.77-8.61,8.02-2.94,3.25-5.39,6.6-7.36,10.06-1.96,3.46-2.95,6.5-2.95,9.13,0,1.52.24,2.79.72,3.8.48,1.02,1.19,1.8,2.12,2.36.93.55,2.06.83,3.38.83,2.85,0,6.08-1.05,9.7-3.14,3.5-2.02,7.38-5.07,11.56-8.95.08-.47.07-.87.2-1.37.38-1.4,1.38-3.27,3.01-5.58,3.44-4.85,6.38-8.81,8.82-11.89,1.96-2.47,3.46-4.1,4.89-5.61l-7.86-40.23-5.32.7,1.01,3.12c.08.24.15.44.22.64.07.22.13.43.19.64l.03.09c3.02,10.51,6.27,24.71-9.57,26.82-22.04,2.94-34.11-10.53-37.83-20.95l-.03-.09c-.08-.21-.15-.42-.22-.64-.07-.2-.13-.4-.2-.64l-.88-2.74-2.36.31v82.15c0,1.99,1.85,3.52,3.94,3.27l59.56-7.19c2.54-.23,5.12-2.3,5.12-5.9l-1.79-12.2c-1.14,1.06-2.29,2.15-3.19,2.9Z"/>
  <path class="cls-1" d="M48.53,44.48c.06.19.13.38.2.57v.02c3.02,8.45,14.29,18.73,30.6,14.2,12.76-3.55,1.38-24.02,1.38-24.02l-33.27,5.82.91,2.84c.06.19.11.39.17.58Z"/>
  <path class="cls-1" d="M95.62,88.35c-1.48,1.79-2.84,3.38-4.07,4.77-1.23,1.4-2.63,2.91-4.2,4.54v3.33c2.63-2.76,4.91-5.01,6.84-6.77,1.92-1.76,3.55-3.08,4.89-3.98,1.33-.9,2.32-1.35,2.95-1.35.24,0,.44.29.67.4l-1.23-8.39c-.94,1.25-2.01,2.68-2.5,3.32-.75.97-1.86,2.35-3.35,4.14Z"/>
  <path class="cls-1" d="M98.85,98.95c-.45.82-.68,1.53-.68,2.12,0,.87.44,1.31,1.33,1.31.71,0,2.71-1.34,4.73-2.7l-.95-6.46c-.94,1.08-1.88,2.16-2.5,2.93-.84,1.04-1.48,1.98-1.93,2.8Z"/>
  <path class="cls-1" d="M65.61,22.19l-.96-.38-.18-1.47c-.02-.27-.04-.5-.07-.72-.03-.24-.06-.48-.1-.72v-.1C62.49,7.08,52.96-1.22,36.18.15,16.29,1.78,8.99,13.73,9.98,25.53v.1c.03.24.05.48.08.72.03.23.06.45.1.72l.34,2.83-3.06.43,2.04,4.1,52.73-7.73,15.5,4.33,9.75-1.38-21.85-7.44ZM54.37,23.11l-33.79,5.31.15,1.31-4.25.6-.14-1.2-.33-2.83c-.03-.21-.07-.43-.1-.64-.03-.22-.04-.43-.06-.65v-.02c-.81-9.56,5.59-17.12,19.95-18.77,8.84-1.02,21.5,3.66,22.96,13.16v.02c.03.21.07.43.09.64.03.22.04.43.06.65l.21,1.72.28,2.31-4.76.69-.27-2.3Z"/>
</svg>