<?xml version="1.0" encoding="UTF-8"?>
<svg id="Capa_1" xmlns="http://www.w3.org/2000/svg" version="1.1" viewBox="0 0 1024 1024">
  <!-- Generator: Adobe Illustrator 29.4.0, SVG Export Plug-In . SVG Version: 2.1.0 Build 152)  -->
  <defs>
    <style>
      .st0 {
        fill: #1c1c1c;
      }
    </style>
  </defs>
  <path class="st0" d="M993.78,265.96c-16.59-39.23-40.33-74.44-70.55-104.67-30.22-30.22-65.44-53.96-104.66-70.55-40.65-17.19-83.78-25.91-128.21-25.91h-358.02c-44.43,0-87.56,8.71-128.21,25.9-15.64,6.61-30.6,14.41-44.9,23.25-21.57,13.34-41.59,29.12-59.76,47.3-28.4,28.4-50.99,61.25-67.39,97.65-1.05,2.34-2.16,4.64-3.17,7.01C11.71,306.6,3,349.73,3,394.16h0v199.53c0,44.43,8.71,87.57,25.91,128.21,16.59,39.23,40.33,74.44,70.55,104.67,30.22,30.22,65.44,53.96,104.66,70.55,40.65,17.19,83.78,25.91,128.21,25.91h358.02c44.43,0,87.56-8.71,128.21-25.9,14.71-6.22,28.86-13.45,42.39-21.65,22.55-13.66,43.39-30.02,62.28-48.9,28.11-28.11,50.52-60.58,66.88-96.54,1.23-2.71,2.51-5.38,3.67-8.13,17.2-40.65,25.91-83.78,25.91-128.21h0v-199.53c0-44.43-8.71-87.57-25.91-128.21ZM623.22,144.85v.49s56-.19,58.32-.49h8.81c44.96,0,88.09,11.87,125.87,34.04-5.38,3.35-10.61,7.42-15.47,12.28l-288.49,288.49L221.94,189.34c-4.39-4.39-9.09-8.17-13.93-11.32,37.41-21.6,79.97-33.17,124.32-33.17h290.89ZM939.67,470.72c-.17,1.75-.28,3.52-.28,5.34v51.08h.27v66.56c0,25-3.66,49.44-10.71,72.7-11.74,38.71-32.9,74.17-62.31,103.58-47.09,47.09-109.7,73.03-176.29,73.03h-290.89v-.49h-51.2c-2.43,0-4.8.19-7.12.49h-8.81c-66.59,0-129.2-25.94-176.29-73.02-47.09-47.09-73.02-109.7-73.02-176.29v-76.55c.17-1.75.28-3.53.28-5.34v-51.08h-.27v-66.55c0-25.01,3.66-49.47,10.72-72.74,8.23-27.11,21.17-52.58,38.24-75.54,3.66,6.63,8.47,13.09,14.39,19.01l290.32,290.32,75.56,75.56,75.56-75.55,288.49-288.49c6.27-6.27,11.27-13.15,15-20.18,31.39,42.54,48.36,93.77,48.36,147.62v76.55Z"/>
</svg>