<?xml version="1.0" encoding="UTF-8"?>
<svg id="Capa_1" xmlns="http://www.w3.org/2000/svg" version="1.1" viewBox="0 0 1024 1024">
  <!-- Generator: Adobe Illustrator 29.4.0, SVG Export Plug-In . SVG Version: 2.1.0 Build 152)  -->
  <defs>
    <style>
      .st0 {
        fill: #1c1c1c;
      }
    </style>
  </defs>
  <path d="M740.01,472.2l-32.64-4.7c-5.23-29.05-16.06-56-31.27-79.56l20.77-28.94c2.24-2.36,2.24-6.19,0-8.55l-38.77-40.87c-2.24-2.36-5.87-2.36-8.11,0l-27.4,21.94c-22.47-16.13-48.19-27.6-75.91-33.08l-4.51-34.34c0-3.33-2.57-6.04-5.74-6.04h-54.83c-3.17,0-5.73,2.71-5.73,6.04l-4.46,34.41c-26.83,5.37-51.78,16.34-73.72,31.72l-25.15-20.66c-2.24-2.36-5.86-2.36-8.1,0l-42.83,45.15c-2.24,2.36-2.24,6.19,0,8.55l19.56,26.57c-14.11,22.39-24.31,47.75-29.56,75.01l-33.13,4.34c-3.16,0-5.73,2.7-5.73,6.05v63.85c0,3.33,2.57,6.04,5.73,6.04l33.06,4.4c5.23,27.43,15.47,52.95,29.67,75.46l-19.59,26.52c-2.24,2.36-2.24,6.19,0,8.55l42.83,45.15c2.24,2.36,5.87,2.36,8.1,0l25.2-20.62c21.23,14.88,45.29,25.63,71.14,31.17l4.12,34.93c0,3.34,2.56,6.05,5.73,6.05h60.56c3.17,0,5.74-2.71,5.74-6.05l4.17-34.85c26.73-5.66,51.56-16.91,73.33-32.52l27.45,21.9c2.23,2.36,5.87,2.36,8.11,0l38.77-40.87c2.24-2.36,2.24-6.19,0-8.55l-20.81-28.88c15.3-23.69,26.17-50.81,31.38-80.03l32.57-4.75c3.16,0,5.73-2.71,5.73-6.04v-57.81c0-3.34-2.57-6.04-5.73-6.04ZM509.25,610.64c-54.09,0-97.94-46.23-97.94-103.26s43.85-103.26,97.94-103.26,97.93,46.23,97.93,103.26-43.85,103.26-97.93,103.26Z"/>
  <path class="st0" d="M992.55,266.59c-16.62-41.43-40.4-78.62-70.68-110.55-30.28-31.92-65.55-56.99-104.85-74.51-40.72-18.15-83.93-27.36-128.44-27.36h-358.66c-44.51,0-87.72,9.2-128.44,27.36-15.66,6.98-30.66,15.22-44.98,24.56-21.61,14.09-41.66,30.76-59.87,49.95-28.45,29.99-51.08,64.69-67.51,103.14-1.06,2.47-2.17,4.9-3.17,7.4C8.73,309.52,0,355.08,0,402H0v210.74C0,659.68,8.73,705.23,25.96,748.16c16.62,41.43,40.4,78.62,70.68,110.55,30.28,31.92,65.55,56.99,104.85,74.51,40.72,18.15,83.93,27.36,128.44,27.36h358.66c44.51,0,87.72-9.2,128.44-27.36,14.74-6.57,28.91-14.21,42.46-22.86,22.59-14.43,43.47-31.7,62.39-51.65,28.16-29.69,50.61-63.98,67-101.96,1.23-2.86,2.51-5.69,3.68-8.58,17.23-42.93,25.96-88.49,25.96-135.41h0v-210.74c0-46.93-8.73-92.49-25.96-135.42ZM153.32,798.95c-47.17-49.74-73.15-115.87-73.15-186.2v-80.85c.17-1.85.28-3.73.28-5.64v-53.95h-.27v-70.29c0-26.42,3.67-52.25,10.74-76.83,11.76-40.87,32.95-78.31,62.41-109.36,47.17-49.74,109.9-77.13,176.61-77.13h291.4v.52h51.29c2.44,0,4.81-.21,7.13-.52h8.83c66.71,0,129.43,27.39,176.61,77.13,47.17,49.74,73.15,115.87,73.15,186.2v80.85c-.17,1.85-.28,3.72-.28,5.64v53.95h.27v70.3c0,26.4-3.66,52.22-10.73,76.79-11.76,40.88-32.96,78.34-62.42,109.4-47.17,49.74-109.9,77.13-176.61,77.13h-291.4v-.51h-51.29c-2.44,0-4.81.2-7.13.52h-8.83c-66.71,0-129.43-27.39-176.61-77.13Z"/>
</svg>