<?xml version="1.0" encoding="UTF-8"?>
<svg id="Capa_1" data-name="Capa 1" xmlns="http://www.w3.org/2000/svg" viewBox="0 0 818.84 926.9">
  <defs>
    <style>
      .cls-1 {
        fill: #fff;
      }
    </style>
  </defs>
  <path class="cls-1" d="M759.49,742.63h-17.71v-332.48c0-76.71-25.19-148.94-72.84-208.86-41.67-52.4-98.58-91.45-161.97-111.51C500.97,39.29,457.9,0,405.83,0s-95.15,39.29-101.15,89.78c-63.39,20.06-120.3,59.11-161.97,111.51-47.65,59.92-72.84,132.15-72.84,208.86v332.48h-10.51c-32.73,0-59.36,26.63-59.36,59.36s26.63,59.36,59.36,59.36h41.52c5.24,37,37.11,65.55,75.53,65.55s70.3-28.55,75.53-65.55h507.54c32.73,0,59.36-26.63,59.36-59.36s-26.63-59.36-59.36-59.36h0ZM97.54,410.15c0-144.88,99.97-266.36,234.68-299.37-.35-2.93-.58-5.89-.58-8.91,0-40.97,33.22-74.19,74.19-74.19s74.19,33.22,74.19,74.19c0,3.02-.23,5.98-.59,8.91,134.71,33.01,234.68,154.49,234.68,299.37v332.48H97.54v-332.48h0ZM759.49,833.68H221.94c1.96,5.28,3.09,10.97,3.09,16.93,0,26.85-21.77,48.62-48.62,48.62s-48.62-21.77-48.62-48.62c0-5.96,1.12-11.65,3.09-16.93H59.36c-17.5,0-31.69-14.19-31.69-31.69s14.19-31.69,31.69-31.69h700.13c17.51,0,31.69,14.19,31.69,31.69s-14.19,31.69-31.69,31.69h0Z"/>
</svg>