<?xml version="1.0" encoding="UTF-8"?>
<svg id="Capa_1" data-name="Capa 1" xmlns="http://www.w3.org/2000/svg" viewBox="0 0 128 75.99">
  <defs>
    <style>
      .cls-1 {
        fill: #fff;
      }
    </style>
  </defs>
  <path class="cls-1" d="M71.55,46.66c1.25-.5,2.2-1.03,2.83-1.57.56-.49.84-.98.84-1.47,0-.62-1.1-1.02-1.76-1.21-1.33-.38-3-.58-4.95-.58-.4,0-.83,0-1.28.03-.45.02-.99.06-1.61.12-.32.03-.58.06-.79.08,0,.07,0,.14,0,.23,0,.46-.13.96-.4,1.53-.25.53-.57,1.07-.96,1.62-.38.54-.94,1.3-1.68,2.3l-1.37,1.82c2.37-.47,4.44-.94,6.19-1.38,1.98-.5,3.64-1.02,4.94-1.53Z"/>
  <path class="cls-1" d="M98.6,46.32c1.31-1.68,2.35-3.1,3.09-4.2.74-1.11,1.31-2.04,1.68-2.77.24-.47.37-.79.44-.99-.24.19-.62.53-1.21,1.15-.93.98-2,2.36-3.19,4.08-1.69,2.44-2.88,4.21-3.62,5.42-.41.66-.77,1.36-1.08,2.09.26-.28.51-.57.77-.87.7-.84,1.72-2.12,3.12-3.9Z"/>
  <path class="cls-1" d="M0,71.93c0,2.24,1.78,4.06,3.98,4.06h120.03c2.2,0,3.98-1.82,3.98-4.06V28.26H0v43.67ZM23.94,67.28c-4.33,0-8.2-1.93-10.88-4.97h21.76c-2.68,3.04-6.55,4.97-10.88,4.97ZM80.98,47.61c.48,0,.94.06,1.36.19.27.08.9.27.9.78,0,.23-.08.62-.67,1.58-.42.68-1.07,1.48-1.99,2.45-.88.92-1.9,1.83-3.03,2.71-.22.71-.33,1.25-.33,1.61,0,.46.13.46.25.46,0,0,.14-.02.56-.34.36-.27,1-.81,1.9-1.62.91-.81,1.72-1.53,2.44-2.16.5-.44,1.1-1.13,1.78-2.04.71-.94,1.29-1.66,1.73-2.14,1.02-1.1,1.71-1.8,2.09-2.14.45-.39.9-.6,1.34-.6.61,0,.9.29,1.04.53.16.28.23.75.23,1.48,0,.33-.03.61-.1.83-.07.22-.19.48-.38.8-.17.29-.52.82-1.04,1.59l-1.84,2.7c-.36.53-.69,1.12-.96,1.74-.32.75-.39,1.12-.39,1.31,0,.65.24.65.41.65.38,0,.85-.17,1.39-.52.5-.31,1.26-.87,2.27-1.67.21-1.88.86-3.91,1.92-6.02,1.32-2.62,2.92-5.1,4.77-7.37,1.85-2.27,3.67-4.18,5.41-5.68,2.43-2.09,3.32-2.33,3.78-2.33.39,0,1.3.16,1.3,1.66,0,3.77-4.49,10.05-13.72,19.19-.02.26-.03.69-.03,1.28,0,2.43.81,2.43,1.08,2.43.29,0,.61-.13.93-.39.35-.29.89-.83,1.61-1.61-.28-.69-.41-1.19-.41-1.57,0-.85.34-1.77,1-2.73.63-.91,1.36-1.72,2.17-2.38.88-.73,1.51-1.06,1.97-1.06.38,0,1.27.16,1.27,1.66,0,.67-.17,1.48-.51,2.4-.3.8-.72,1.72-1.25,2.73.09.07.17.13.23.17.03.02.12.06.38.06.3,0,.65-.09,1.04-.27.06-.5.16-.9.31-1.23.25-.57.66-1.29,1.27-2.2.84-1.19,1.66-2.21,2.43-3.05.77-.83,1.47-1.49,2.07-1.95.7-.53,1.14-.76,1.48-.76.49,0,.96.24,1.39.72.42.47.63.97.63,1.5,0,.36-.2.84-.63,1.51-.39.6-1,1.37-1.82,2.27-.8.88-1.92,1.95-3.32,3.17l-.35,1.03c-.12.25-.14.37-.14.44,0,.07.01.11.02.12,0,0,0,0,0,0,0,0,.04,0,.1,0,.07,0,.54-.07,2.44-1.4,1.38-.96,2.9-2.28,4.52-3.92.62-.64,1.15-1.21,1.57-1.7.42-.49.79-.96,1.13-1.39.34-.44.64-.79.88-1.03.3-.3.59-.45.87-.47.04,0,.09,0,.14,0,.31,0,.74.11,1.05.66.23.4.34.96.34,1.69,0,.46-.18.99-.55,1.62-.32.56-.93,1.5-1.85,2.89-.9,1.35-1.8,2.76-2.67,4.18-.45.73-.91,1.52-1.38,2.36.57-.56,1.16-1.14,1.77-1.73.89-.86,1.62-1.56,2.19-2.08.57-.52,1.3-1.14,2.16-1.84l.69-.56v2.47l-.11.13c-1.8,1.96-3.47,3.88-4.98,5.7-1.48,1.79-2.64,3.24-3.43,4.31-.81,1.08-1.28,1.71-1.42,1.89-.36.48-.69.93-.98,1.35-.3.44-.56.78-.76,1.01-.2.23-.47.49-.8.49-.72,0-1.05-.86-1.16-1.14-.24-.62-.37-1.19-.37-1.69,0-.47.09-.89.27-1.25.83-1.9,2.57-5.06,5.18-9.38l-1.56,1.35c-2.4,2.14-3.26,2.41-3.74,2.41-.73,0-1.38-.67-2.06-2.11-.35-.74-.6-1.44-.75-2.08-.92.47-1.67.7-2.29.7-.4,0-.83-.06-1.27-.17-1.16,1.48-2.18,2.6-3.04,3.31-.95.8-1.93,1.2-2.91,1.2-1.19,0-2.11-.63-2.74-1.88-.42-.83-.69-1.84-.8-2.99-1.06.99-1.88,1.75-2.46,2.26-.79.71-1.46,1.22-2.04,1.58-.62.39-1.23.58-1.81.58-.8,0-2.14-.33-2.14-2.51,0-.59.18-1.33.54-2.29.07-.19.15-.4.25-.63-.96,1.24-1.76,2.2-2.38,2.88-1.12,1.23-2.05,1.82-2.83,1.82-.63,0-1.21-.26-1.73-.78-.48-.48-.86-1.13-1.11-1.94-.25-.78-.38-1.63-.38-2.51,0-.59.06-1.12.16-1.6.11-.48.32-1.01.62-1.57.3-.56.69-1.16,1.17-1.79.47-.63,1.06-1.35,1.74-2.14l1.03-1.22c.32-.39.64-.65.97-.79.32-.14.8-.21,1.47-.21ZM49.11,60.56c.77-1.35,1.81-2.93,3.1-4.71-.53-.23-.87-.38-1.03-.48-.2-.11-.52-.41-.44-1.07.05-.39.3-.91.78-1.65.4-.61.69-1.01.9-1.23.23-.24.5-.43.81-.57.29-.13.6-.22.93-.27.27-.04,1.02-.14,2.23-.29,1.04-1.44,2.17-2.99,3.39-4.65.93-1.27,1.7-2.32,2.33-3.18-1.58.23-2.73.42-3.41.58-.91.18-1.66.33-2.27.45-.36.07-.66.14-.88.19.22.02.47.03.74.03.48,0,.85.02,1.12.06.67.09.75.5.75.67,0,.23-.12.63-.9.67-.33.02-1.27.07-2.81.14-.87.03-1.6.06-2.19.08-.6.03-1.02.04-1.25.04-.44,0-.79-.15-1.05-.43-.25-.27-.38-.63-.38-1.06,0-.19.04-.55.42-1.47.27-.67.66-1.35,1.15-2.03.51-.7,1.1-1.25,1.76-1.63.72-.45,1.81-.89,3.33-1.34,1.48-.44,3.14-.8,4.93-1.07,1.8-.27,3.61-.41,5.38-.41,1.07,0,2.14.06,3.16.19,1.03.13,1.97.28,2.79.46.84.18,1.51.37,2.01.56,1.3.43,2.32,1.12,3.03,2.03.72.92,1.08,1.95,1.08,3.06,0,1.03-.18,2.05-.53,3.03-.35.98-.89,1.9-1.61,2.73-.72.83-1.59,1.52-2.61,2.04-.82.43-2.02.86-3.68,1.3-1.61.43-3.58.82-5.86,1.15-1.7.25-3.57.45-5.58.6,1.37.51,2.69,1.03,3.93,1.55,1.82.76,3.37,1.44,4.61,2.02,1.27.6,2.24,1.08,2.94,1.45,1.03.54,1.68.93,2,1.18.38.3.63.68.75,1.15.1.41.16,1.05.16,1.96,0,1.02-.06,1.76-.19,2.26-.22.89-.82,1.02-1.16,1.02-.15,0-.35-.04-1.16-.45-.53-.27-1.25-.67-2.19-1.19-.92-.52-1.76-.98-2.51-1.39-.75-.41-1.95-1.02-3.57-1.81l-7.37-3.66c-2.22,3.12-2.86,4.42-3.01,4.96-.19.72-.61,1.33-1.25,1.81-.67.5-1.12.72-1.47.72-1.33,0-1.47-.87-1.47-1.25,0-.3.16-.85,1.29-2.85ZM23.94,37.5c4.33,0,8.2,1.93,10.88,4.97H13.07c2.67-3.04,6.55-4.97,10.88-4.97ZM10.36,46.69h27.92c.68,1.75,1.07,3.64,1.07,5.64s-.4,3.99-1.11,5.77H10.41c-.71-1.78-1.11-3.72-1.11-5.77s.39-3.89,1.07-5.64Z"/>
  <path class="cls-1" d="M124.02,0H3.98C1.78,0,0,1.82,0,4.06v7.31h128v-7.31c0-2.24-1.78-4.06-3.98-4.06Z"/>
</svg>