<?xml version="1.0" encoding="UTF-8"?>
<svg id="Capa_1" data-name="Capa 1" xmlns="http://www.w3.org/2000/svg" viewBox="0 0 124.36 79.26">
  <defs>
    <style>
      .cls-1 {
        fill: #fff;
      }
    </style>
  </defs>
  <path class="cls-1" d="M33.2,8.76l-6.03-7.04C26.13.52,24.65-.05,23.18,0c-.08,0-.16,0-.23,0H5.04C2.26,0,0,2.25,0,5.04s2.26,5.04,5.04,5.04h16.03l4.55,5.31c1.83,2.1,5.01,2.31,7.11.48,2.1-1.83,2.31-5.02.48-7.11Z"/>
  <path class="cls-1" d="M78.79,71.2c0,4.45-3.61,8.06-8.06,8.06s-8.06-3.61-8.06-8.06,3.6-8.07,8.06-8.07,8.06,3.61,8.06,8.07Z"/>
  <path class="cls-1" d="M106.59,71.2c0,4.45-3.61,8.06-8.07,8.06s-8.06-3.61-8.06-8.06,3.61-8.07,8.06-8.07,8.07,3.61,8.07,8.07Z"/>
  <path class="cls-1" d="M122.06,34.9c-2.39,1.61-5.63.97-7.23-1.41l-5.17-7.68c-1.61-2.39-.97-5.63,1.41-7.23h0c2.39-1.61,5.63-.98,7.24,1.41l5.17,7.68c1.61,2.39.97,5.63-1.41,7.24h0Z"/>
  <path class="cls-1" d="M116.92,48.57c-2.23,1.49-5.24.9-6.73-1.32l-14.78-22c-1.5-2.22-.9-5.24,1.32-6.73h0c2.23-1.49,5.24-.9,6.74,1.32l14.78,22.01c1.49,2.22.9,5.24-1.32,6.73h0Z"/>
  <path class="cls-1" d="M109.13,57.47c-2.22,1.56-5.28,1.03-6.84-1.18l-22.13-31.4c-1.56-2.21-1.03-5.27,1.18-6.83h0c2.21-1.56,5.27-1.03,6.83,1.18l22.14,31.39c1.56,2.22,1.03,5.27-1.18,6.84h0Z"/>
  <path class="cls-1" d="M93.61,58c-2.21,1.56-5.27,1.03-6.83-1.18l-22.14-31.4c-1.56-2.22-1.03-5.27,1.19-6.84h0c2.21-1.56,5.27-1.03,6.83,1.18l22.13,31.39c1.56,2.22,1.03,5.27-1.18,6.84h0Z"/>
  <path class="cls-1" d="M78.12,58.93c-2.21,1.56-5.27,1.03-6.83-1.18l-22.14-31.39c-1.56-2.21-1.03-5.27,1.18-6.84h0c2.21-1.56,5.27-1.03,6.84,1.18l22.14,31.39c1.56,2.21,1.03,5.27-1.19,6.83h0Z"/>
  <path class="cls-1" d="M62.57,58.93c-2.21,1.56-5.27,1.03-6.83-1.18l-22.14-31.39c-1.56-2.21-1.03-5.27,1.19-6.84h0c2.21-1.56,5.27-1.03,6.83,1.18l22.14,31.39c1.56,2.21,1.03,5.27-1.19,6.83h0Z"/>
</svg>