<?xml version="1.0" encoding="UTF-8"?>
<svg id="Capa_1" xmlns="http://www.w3.org/2000/svg" version="1.1" viewBox="0 0 25 25">
  <!-- Generator: Adobe Illustrator 29.5.0, SVG Export Plug-In . SVG Version: 2.1.0 Build 137)  -->
  <defs>
    <style>
      .st0 {
        fill: #666;
      }
    </style>
  </defs>
  <path class="st0" d="M21.4,2.69v17.68c0,.52-.31.98-.79,1.18l-6.45,2.65c-.81.33-1.71-.26-1.71-1.14v-1.75l-.24-.24h-4.36c-.55,0-.99-.44-.99-.99v-3.16h1.76v2.4h3.83V5.33l4.63-2.16h-7.78c-.38,0-.68.31-.68.68v3.15h-1.76V2.56c0-.63.51-1.15,1.15-1.15h12.11c.7,0,1.27.57,1.27,1.27Z"/>
  <path class="st0" d="M5.27,10.68l.08-2.08,4.12,2.77c.37.25.38.78.02,1.04l-3.98,2.9c-.33.04-.21-.01-.24-.23-.08-.57.05-1.26,0-1.84H1.9c-.34,0-.62-.28-.62-.62v-1.31c0-.34.28-.62.62-.62h3.37Z"/>
</svg>