<?xml version="1.0" encoding="UTF-8"?>
<svg id="Capa_1" data-name="Capa 1" xmlns="http://www.w3.org/2000/svg" viewBox="0 0 123.78 121.17">
  <defs>
    <style>
      .cls-1 {
        fill: #fff;
        isolation: isolate;
        opacity: .9;
      }
    </style>
  </defs>
  <path class="cls-1" d="M123.78,58.82c-.12-11.82-.77-23.82-.32-35.45.02-.46.02-.93-.02-1.39-1.01-11.58-10.27-20.72-22.07-21.98H22.48C11.16,1.19,2.15,9.74.49,20.71c-.1.65-.11,1.3-.08,1.95.7,16.9-1.13,34.73-.06,51.49.8,12.6,11.74,22.52,24.58,22.53l.07,19.07c-.4,6.43,7,6.85,11.06,2.78l22.31-21.79,42.42-.06c12.26-1.12,21.99-10.52,22.69-22.68.17-2.96.26-5.95.29-8.96v-6.22h.02ZM34.18,57.36c-5.11,0-9.26-4.07-9.26-9.08s4.15-9.08,9.26-9.08,9.26,4.07,9.26,9.08-4.15,9.08-9.26,9.08ZM61.92,57.36c-5.11,0-9.26-4.07-9.26-9.08s4.15-9.08,9.26-9.08,9.26,4.07,9.26,9.08-4.15,9.08-9.26,9.08ZM89.67,57.36c-5.11,0-9.26-4.07-9.26-9.08s4.15-9.08,9.26-9.08,9.26,4.07,9.26,9.08-4.15,9.08-9.26,9.08Z"/>
</svg>