<?xml version="1.0" encoding="UTF-8"?>
<svg id="Capa_1" xmlns="http://www.w3.org/2000/svg" version="1.1" viewBox="0 0 1024 1024">
  <!-- Generator: Adobe Illustrator 29.4.0, SVG Export Plug-In . SVG Version: 2.1.0 Build 152)  -->
  <defs>
    <style>
      .st0 {
        fill: #1c1c1c;
        fill-rule: evenodd;
      }
    </style>
  </defs>
  <path class="st0" d="M702.21,216.03v-91.21c0-7.53.03-15.06,0-22.59-.03-16.9,7.71-28.97,23.23-35.31,15.94-6.5,30.25-3.17,42.49,9.05,44.28,44.3,88.57,88.55,132.88,132.83,30.28,30.28,60.58,60.5,90.79,90.88,20.55,20.69,20.61,40.34.12,60.86-74.24,74.34-148.6,148.53-222.71,222.94-12.59,12.63-26.7,16.47-43.29,10.21-15.61-5.88-23.42-18.51-23.48-37.55-.09-36.77-.03-73.58-.03-109.85-1.57-.89-2.22-1.59-2.87-1.59-74.84.01-150.14-5.05-223.79,12.18-28.97,6.76-57.82,17.07-84.34,30.55-53.38,27.12-77.46,75.98-88.57,132.34-11.36,57.87-8.32,115.95-1.3,174.01.34,2.76.71,5.49,1.06,8.25,1.34,10.34-2.45,18.14-12.39,21.72-9.94,3.6-18.33.02-23.45-8.82-18.98-32.87-38.97-65.3-55.97-99.2-44.45-88.69-52.58-181.62-27.65-277.34,21.66-83.14,74.33-139.73,151.47-175.23,55.08-25.38,113.44-38.1,173.34-41.89,59.67-3.77,119.56-3.65,179.38-5.21,4.63-.12,9.3-.02,15.07-.02Z"/>
  <path class="st0" d="M17.04,557.87c.03-82.85-.28-165.71.12-248.56.34-79.84,56.56-148.91,134.42-165.54,11.15-2.38,22.76-3.55,34.17-3.63,50.33-.4,100.7-.32,151.04-.19,16.51.06,26.55,12.51,20.58,26.21-2.07,4.72-7.5,9-12.43,11.29-25.46,11.74-51.16,22.96-76.94,33.97-5.66,2.41-12.02,4.24-18.1,4.4-21.4.54-42.83-.06-64.21.35-50.11.94-92.1,41.82-92.26,91.89-.49,166.9-.49,333.8-.02,500.71.14,50.5,42.46,92.16,93.09,92.26,166.08.34,332.2.33,498.3,0,51.13-.11,92.72-41.97,93.37-93.31.56-40.84.49-81.68-.06-122.5-.15-12.77,4.66-20.56,15.63-26.65,9.95-5.52,18.31-13.93,28.34-19.3,5.89-3.16,14.04-4.94,20.43-3.65,8.33,1.68,12.03,9.23,12,18.28-.17,53.9,1.05,107.87-.49,161.72-2.5,88.28-79.11,161.17-168.96,161.57-105.85.46-211.7.12-317.56.12-58.66,0-117.34.05-176-.02-99.82-.11-174.3-74.57-174.42-174.44-.12-81.67-.03-163.32-.03-244.99Z"/>
</svg>