<?xml version="1.0" encoding="UTF-8"?>
<svg id="Capa_1" data-name="Capa 1" xmlns="http://www.w3.org/2000/svg" viewBox="0 0 1011.37 972.02">
  <defs>
    <style>
      .cls-1 {
        fill: #fff;
      }
    </style>
  </defs>
  <path class="cls-1" d="M1011.31,303.48c-3-81.7-37.01-158.02-95.78-214.91C856.53,31.46,778.8,0,696.66,0,637.49,0,579.82,16.57,529.88,47.91c-8.34,5.24-16.42,10.85-24.2,16.81-7.78-5.96-15.85-11.58-24.2-16.81C431.54,16.57,373.87,0,314.7,0c-82.14,0-159.87,31.45-218.87,88.57C37.08,145.45,3.07,221.78.07,303.48l-.07,1.84v1.84c0,69.69,25.74,144.57,78.7,228.91,37.13,59.14,88.08,123.08,151.45,190.05,105.16,111.13,209.07,193.43,213.44,196.88l62.15,49.02,62.11-49.07c4.37-3.45,108.27-85.85,213.4-197.03,63.36-67,114.31-130.93,151.42-190.04,52.96-84.33,78.7-159.14,78.7-228.73v-1.84l-.07-1.84h.01ZM505.69,844.28S100.27,524.46,100.27,307.16c4.22-114.94,98.48-206.89,214.44-206.89,83.47,0,155.48,47.75,190.97,117.3,35.5-69.55,107.51-117.3,190.98-117.3,115.97,0,210.22,91.95,214.44,206.89,0,216.84-405.42,537.12-405.42,537.12h0Z"/>
</svg>