<?xml version="1.0" encoding="UTF-8"?>
<svg id="Capa_1" xmlns="http://www.w3.org/2000/svg" version="1.1" viewBox="0 0 128 128">
  <!-- Generator: Adobe Illustrator 29.4.0, SVG Export Plug-In . SVG Version: 2.1.0 Build 152)  -->
  <defs>
    <style>
      .st0 {
        fill: #ed1c24;
      }
    </style>
  </defs>
  <path class="st0" d="M122.22,42.26h-33.31c-1.75,0-3.17-1.42-3.17-3.17V5.78c0-1.75-1.42-3.17-3.17-3.17h-37.28c-1.75,0-3.17,1.42-3.17,3.17v33.31c0,1.75-1.42,3.17-3.17,3.17H5.64c-1.75,0-3.17,1.42-3.17,3.17v37.28c0,1.75,1.42,3.17,3.17,3.17h33.31c1.75,0,3.17,1.42,3.17,3.17v33.31c0,1.75,1.42,3.17,3.17,3.17h37.28c1.75,0,3.17-1.42,3.17-3.17v-33.31c0-1.75,1.42-3.17,3.17-3.17h33.31c1.75,0,3.17-1.42,3.17-3.17v-37.28c0-1.75-1.42-3.17-3.17-3.17Z"/>
</svg>