<?xml version="1.0" encoding="UTF-8"?>
<svg id="Capa_1" data-name="Capa 1" xmlns="http://www.w3.org/2000/svg" viewBox="0 0 122.92 122.92">
  <defs>
    <style>
      .cls-1 {
        fill: #fff;
      }
    </style>
  </defs>
  <path class="cls-1" d="M119.75,39.65h-33.31c-1.75,0-3.17-1.42-3.17-3.17V3.17c0-1.75-1.42-3.17-3.17-3.17h-37.28c-1.75,0-3.17,1.42-3.17,3.17v33.31c0,1.75-1.42,3.17-3.17,3.17H3.17c-1.75,0-3.17,1.42-3.17,3.17v37.28c0,1.75,1.42,3.17,3.17,3.17h33.31c1.75,0,3.17,1.42,3.17,3.17v33.31c0,1.75,1.42,3.17,3.17,3.17h37.28c1.75,0,3.17-1.42,3.17-3.17v-33.31c0-1.75,1.42-3.17,3.17-3.17h33.31c1.75,0,3.17-1.42,3.17-3.17v-37.28c0-1.75-1.42-3.17-3.17-3.17h0Z"/>
</svg>