<?xml version="1.0" encoding="UTF-8"?>
<svg id="Capa_1" xmlns="http://www.w3.org/2000/svg" version="1.1" viewBox="0 0 1024 1024">
  <!-- Generator: Adobe Illustrator 29.4.0, SVG Export Plug-In . SVG Version: 2.1.0 Build 152)  -->
  <path d="M681.94,85.73c-49.52-49.52-115.37-76.8-185.4-76.8s-135.88,27.27-185.4,76.8c-49.52,49.52-76.8,115.37-76.8,185.4s27.27,135.88,76.8,185.4c49.52,49.52,115.37,76.8,185.4,76.8s135.88-27.27,185.4-76.8c49.52-49.52,76.8-115.37,76.8-185.4s-27.27-135.88-76.8-185.4ZM496.54,421.24c-82.77,0-150.1-67.34-150.1-150.1s67.34-150.1,150.1-150.1,150.1,67.34,150.1,150.1-67.34,150.1-150.1,150.1Z"/>
  <path d="M892.59,802.43c-33.88-75.52-88.15-139.57-156.96-185.23-70.9-47.04-153.58-71.91-239.1-71.91s-168.19,24.87-239.1,71.91c-68.81,45.65-123.08,109.7-156.96,185.23-20.83,46.43-16.63,99.83,11.22,142.85,28.29,43.69,76.16,69.78,128.05,69.78h513.56c51.89,0,99.77-26.09,128.05-69.78,27.85-43.02,32.05-96.42,11.22-142.85ZM496.54,657.39c63.4,0,124.65,18.4,177.12,53.22,51.12,33.92,91.46,81.54,116.65,137.7,5.36,11.95,4.28,24.75-3.04,36.05-7.54,11.65-20.24,18.61-33.96,18.61H239.76c-13.72,0-26.41-6.95-33.96-18.6-7.32-11.3-8.4-24.11-3.04-36.05,25.19-56.16,65.53-103.78,116.65-137.7,52.47-34.82,113.72-53.22,177.12-53.22Z"/>
</svg>