<?xml version="1.0" encoding="UTF-8"?>
<svg id="Capa_1" data-name="Capa 1" xmlns="http://www.w3.org/2000/svg" viewBox="0 0 997.76 1008.92">
  <defs>
    <style>
      .cls-1 {
        fill: #fff;
      }
    </style>
  </defs>
  <path class="cls-1" d="M773.55,589.36c-9.73-6.91-19.67-10.42-29.54-10.42-30.02,0-46.08,30.47-57.81,52.71-3.82,7.24-7.76,14.72-10.93,18.75-41.5,52.86-105.27,83.18-174.95,83.18-63.36,0-123.88-25.68-166.05-70.46-5.22-5.55-11.37-15.57-17.32-25.26-15.92-25.94-33.96-55.34-64.15-55.34-4.08,0-8.2.59-12.25,1.75-15.39,4.43-26.19,14.26-30.44,27.68-7.48,23.67,5.8,55.5,41.8,100.16,29.93,37.14,67.61,66.19,112,86.35,42.01,19.08,88.93,29.17,135.68,29.17,71.84,0,141.45-23.71,196.01-66.77,11.88-9.38,34.95-32.21,54.29-56.04,27.87-34.35,41.16-61.43,40.62-82.8-.34-13.53-6.36-25.13-16.96-32.66h0Z"/>
  <path class="cls-1" d="M958.58,308.17c-25.11-60.07-61.07-114.01-106.86-160.34-45.81-46.34-99.16-82.73-158.57-108.15C631.61,13.35,566.25,0,498.88,0s-132.73,13.35-194.27,39.68c-59.42,25.42-112.77,61.81-158.57,108.15-45.79,46.33-81.74,100.27-106.86,160.34C13.18,370.35,0,436.4,0,504.46s13.18,134.11,39.18,196.29c25.11,60.07,61.07,114.01,106.86,160.34,45.81,46.34,99.16,82.73,158.57,108.15,61.54,26.33,126.9,39.68,194.27,39.68s132.73-13.35,194.27-39.68c59.42-25.42,112.77-61.81,158.57-108.15,45.79-46.33,81.74-100.27,106.86-160.34,26-62.18,39.18-128.23,39.18-196.29s-13.18-134.11-39.18-196.29h0ZM872.27,664.08c-20.41,48.81-49.62,92.64-86.83,130.28-37.19,37.63-80.49,67.16-128.7,87.79-49.88,21.34-102.88,32.17-157.52,32.17s-107.63-10.82-157.52-32.17c-48.2-20.63-91.5-50.16-128.7-87.79-37.21-37.64-66.42-81.48-86.83-130.28-21.13-50.54-31.84-104.23-31.84-159.6s10.71-109.06,31.84-159.6c20.41-48.81,49.62-92.64,86.83-130.28,37.19-37.63,80.49-67.16,128.7-87.79,49.88-21.34,102.88-32.17,157.52-32.17s107.63,10.82,157.52,32.17c48.2,20.63,91.5,50.16,128.7,87.79,37.21,37.64,66.42,81.48,86.83,130.28,21.13,50.54,31.84,104.23,31.84,159.6s-10.71,109.06-31.84,159.6Z"/>
  <path class="cls-1" d="M602.56,459.71c45.39,0,82.33-37.26,82.33-83.05s-36.93-83.05-82.33-83.05-82.33,37.26-82.33,83.05,36.93,83.05,82.33,83.05Z"/>
  <path class="cls-1" d="M377.46,459.71c45.39,0,82.32-37.25,82.32-83.04s-36.93-83.04-82.32-83.04-82.32,37.25-82.32,83.04,36.93,83.04,82.32,83.04Z"/>
</svg>