<?xml version="1.0" encoding="UTF-8"?>
<svg id="Capa_1" xmlns="http://www.w3.org/2000/svg" version="1.1" viewBox="0 0 1024 1024">
  <!-- Generator: Adobe Illustrator 29.4.0, SVG Export Plug-In . SVG Version: 2.1.0 Build 152)  -->
  <path d="M999.96,442.04l-69.23-9.47c-11.11-58.47-34.14-112.72-66.36-160.13l44.04-58.24c4.79-4.8,4.79-12.46,0-17.25l-82.22-82.24c-4.77-4.79-12.46-4.79-17.25,0l-58.1,44.14c-47.67-32.45-102.24-55.53-161.07-66.57l-9.56-69.1c0-6.75-5.48-12.16-12.2-12.16h-116.32c-6.7,0-12.18,5.41-12.18,12.16l-9.46,69.27c-56.93,10.78-109.87,32.87-156.45,63.84l-53.35-41.58c-4.72-4.79-12.43-4.79-17.2,0l-90.88,90.88c-4.72,4.73-4.72,12.45,0,17.18l41.53,53.47c-29.98,45.06-51.6,96.1-62.76,151l-70.29,8.72c-6.73,0-12.18,5.45-12.18,12.15v128.53c0,6.69,5.45,12.16,12.18,12.16l70.15,8.85c11.06,55.2,32.82,106.58,62.96,151.86l-41.6,53.4c-4.72,4.7-4.72,12.45,0,17.19l90.88,90.86c4.77,4.73,12.48,4.73,17.2,0l53.48-41.51c45.03,29.98,96.1,51.59,150.97,62.77l8.72,70.27c0,6.71,5.45,12.2,12.17,12.2h128.55c6.69,0,12.13-5.49,12.13-12.2l8.85-70.13c56.75-11.43,109.41-34.05,155.56-65.43l58.27,44.03c4.79,4.73,12.48,4.73,17.25,0l82.22-82.29c4.79-4.7,4.79-12.44,0-17.17l-44.16-58.15c32.5-47.68,55.58-102.24,66.6-161.06l69.1-9.57c6.73,0,12.16-5.46,12.16-12.18v-116.34c0-6.73-5.43-12.16-12.16-12.16ZM510.31,872.82c-198.81,0-359.98-161.14-359.98-360S311.5,152.89,510.31,152.89s359.97,161.16,359.97,359.93-161.17,360-359.97,360Z"/>
</svg>