<?xml version="1.0" encoding="UTF-8"?>
<svg id="Capa_1" xmlns="http://www.w3.org/2000/svg" version="1.1" viewBox="0 0 1024 1024">
  <!-- Generator: Adobe Illustrator 29.4.0, SVG Export Plug-In . SVG Version: 2.1.0 Build 152)  -->
  <path d="M783.6,30.72H240.4c-54.79,0-99.36,44.58-99.36,99.37v763.77c0,54.82,44.65,99.42,99.54,99.42,24.56,0,48.19-9.16,66.55-25.78l204.88-185.63,204.88,185.63c18.35,16.63,41.98,25.78,66.54,25.78h0c25.47,0,49.74-9.61,68.33-27.06,20.12-18.88,31.2-44.58,31.2-72.36V130.09c0-54.79-44.57-99.37-99.36-99.37ZM811.56,893.86c0,24.25-28.76,37.01-46.74,20.72l-234.05-212.05c-10.66-9.65-26.9-9.65-37.55,0l-234.05,212.05c-17.97,16.28-46.74,3.53-46.74-20.72V130.09c0-15.44,12.52-27.96,27.96-27.96h543.2c15.44,0,27.96,12.52,27.96,27.96v763.77Z"/>
  <path d="M666.62,378.22h-131.28v-131.28c0-14.86-8.36-26.9-18.67-26.9h-9.33c-10.31,0-18.68,12.04-18.68,26.9v131.28h-131.28c-14.86,0-26.9,8.36-26.9,18.67v9.33c0,10.31,12.04,18.67,26.9,18.67h131.28v131.28c0,14.86,8.36,26.9,18.68,26.9h9.33c10.31,0,18.67-12.04,18.67-26.9v-131.28h131.28c14.86,0,26.9-8.36,26.9-18.67v-9.33c0-10.31-12.04-18.67-26.9-18.67Z"/>
</svg>