<?xml version="1.0" encoding="UTF-8"?>
<svg id="Capa_1" data-name="Capa 1" xmlns="http://www.w3.org/2000/svg" viewBox="0 0 813.91 909.48">
  <defs>
    <style>
      .cls-1 {
        fill: #fff;
      }
    </style>
  </defs>
  <path class="cls-1" d="M813.91,0H0v204.07h86.58c7.3-27.83,16.64-50.41,28.06-67.69,12.66-19.19,28.07-32.6,46.18-40.21,18.1-7.61,39.48-11.41,64.11-11.41h98.89v712.71c0,33.38-32.24,50.07-96.71,50.07v61.94h360.77v-61.94c-65.2,0-97.8-16.69-97.8-50.07V84.76h98.22c24.72,0,46.18,3.8,64.38,11.41,18.18,7.61,33.64,21.02,46.37,40.21,11.46,17.28,20.85,39.86,28.19,67.69h86.66V0Z"/>
</svg>