<?xml version="1.0" encoding="UTF-8"?>
<svg id="Capa_1" data-name="Capa 1" xmlns="http://www.w3.org/2000/svg" viewBox="0 0 681.07 761.05">
  <defs>
    <style>
      .cls-1 {
        fill: #fff;
      }
    </style>
  </defs>
  <path class="cls-1" d="M681.07,0H0v170.76h72.45c6.11-23.29,13.93-42.18,23.48-56.64,10.6-16.05,23.48-27.28,38.65-33.64,15.15-6.37,33.03-9.55,53.65-9.55h82.75v596.39c0,27.93-26.98,41.9-80.93,41.9v51.83h301.89v-51.83c-54.56,0-81.84-13.97-81.84-41.9V70.93h82.19c20.69,0,38.65,3.18,53.88,9.55,15.22,6.37,28.15,17.59,38.8,33.64,9.59,14.46,17.45,33.36,23.59,56.64h72.52V0Z"/>
</svg>