<?xml version="1.0" encoding="UTF-8"?>
<svg id="Capa_1" xmlns="http://www.w3.org/2000/svg" version="1.1" viewBox="0 0 1024 1024">
  <!-- Generator: Adobe Illustrator 29.4.0, SVG Export Plug-In . SVG Version: 2.1.0 Build 152)  -->
  <defs>
    <style>
      .st0 {
        fill: #e6e6e6;
      }
    </style>
  </defs>
  <path d="M882.17,190.42c-42.27-34.97-85.58-26.38-132.59,11.58-36.75,29.67-95.04,74.58-184.24,148.69-40.66,33.78-67.12,60.66-92.3,62.89-25.18-2.23-40.44-21.42-92.3-62.89-71.08-56.82-147.5-119.02-184.24-148.69-47-37.96-90.32-46.54-132.59-11.58-27.03,22.36-31.46,54.66-31.46,113.7v439.42c0,59.04,4.43,91.34,31.46,113.7,42.26,34.97,85.59,26.38,132.59-11.58,36.75-29.68,118-99.13,184.24-164.07,37.75-37,67.12-60.66,92.3-62.89,25.18,2.23,54.56,25.89,92.3,62.89,66.24,64.94,147.5,134.4,184.24,164.07,47,37.95,90.33,46.54,132.59,11.58,27.03-22.37,31.46-54.66,31.46-113.7v-439.42c0-59.05-4.43-91.34-31.46-113.7ZM783.24,778.73c-207.5-179.43-266.51-221.48-310.22-223.66-43.69,2.18-65.25,1.6-267.52,186.9-75.51,69.17-113.17,38.13-112.52-102.31.02-3.36-1.79-323.69-1.79-328.23,0-88.46,61.77-63.81,95.28-34.85,207.05,179.04,242.96,211.8,286.55,214.87,43.6-3.06,101.61-54.95,308.66-233.99,33.5-28.97,70.72-40.68,71.23,16.44.04,4.54,0,362.4.15,365.76,8.22,189.96-36.33,168.04-69.83,139.07Z"/>
  <path class="st0" d="M976.95,227.3c5.67,0,11.21,1.45,16.62,4.37,5.4,2.91,9.61,7.08,12.63,12.5,3.02,5.42,4.52,11.07,4.52,16.95s-1.48,11.42-4.46,16.79c-2.97,5.38-7.14,9.55-12.5,12.52-5.36,2.97-10.97,4.46-16.82,4.46s-11.46-1.49-16.82-4.46c-5.36-2.97-9.53-7.14-12.52-12.52-2.98-5.38-4.48-10.98-4.48-16.79s1.52-11.54,4.55-16.95c3.03-5.42,7.25-9.59,12.66-12.5,5.4-2.91,10.94-4.37,16.62-4.37ZM976.95,232.9c-4.75,0-9.37,1.22-13.86,3.65-4.5,2.43-8.01,5.91-10.55,10.43-2.54,4.52-3.81,9.24-3.81,14.14s1.25,9.53,3.74,14c2.49,4.47,5.98,7.94,10.46,10.43,4.48,2.5,9.15,3.74,14.02,3.74s9.54-1.25,14.02-3.74c4.48-2.49,7.96-5.97,10.44-10.43,2.48-4.47,3.72-9.13,3.72-14s-1.26-9.61-3.78-14.14c-2.52-4.52-6.04-8-10.55-10.43-4.51-2.43-9.12-3.65-13.84-3.65ZM962.13,279.8v-36.38h12.5c4.27,0,7.36.34,9.27,1.01,1.91.67,3.43,1.85,4.57,3.51,1.13,1.67,1.7,3.45,1.7,5.33,0,2.66-.95,4.97-2.85,6.94-1.9,1.97-4.41,3.08-7.55,3.32,1.28.53,2.32,1.18,3.09,1.93,1.46,1.43,3.25,3.84,5.38,7.22l4.44,7.12h-7.17l-3.23-5.73c-2.54-4.51-4.59-7.33-6.14-8.47-1.08-.83-2.64-1.25-4.7-1.25h-3.45v15.45h-5.87ZM968,259.33h7.12c3.4,0,5.73-.51,6.97-1.52s1.86-2.36,1.86-4.03c0-1.08-.3-2.04-.9-2.89-.6-.85-1.43-1.49-2.48-1.9-1.06-.42-3.02-.63-5.89-.63h-6.67v10.98Z"/>
</svg>