<?xml version="1.0" encoding="UTF-8"?>
<svg id="Capa_1" data-name="Capa 1" xmlns="http://www.w3.org/2000/svg" viewBox="0 0 108.35 108.35">
  <defs>
    <style>
      .cls-1 {
        fill: #fff;
      }
    </style>
  </defs>
  <path class="cls-1" d="M54.18,9.76c14.47,0,16.18.06,21.89.32,5.28.24,8.15,1.12,10.06,1.87,2.53.98,4.33,2.16,6.23,4.05,1.9,1.9,3.07,3.7,4.05,6.23.74,1.91,1.62,4.78,1.87,10.06.26,5.71.32,7.43.32,21.89s-.06,16.18-.32,21.89c-.24,5.28-1.12,8.15-1.87,10.06-.98,2.53-2.16,4.33-4.05,6.23-1.9,1.9-3.7,3.07-6.23,4.05-1.91.74-4.78,1.63-10.06,1.87-5.71.26-7.42.31-21.89.31s-16.18-.06-21.89-.31c-5.28-.24-8.15-1.12-10.06-1.87-2.53-.98-4.33-2.16-6.23-4.05-1.9-1.9-3.07-3.7-4.05-6.23-.74-1.91-1.62-4.78-1.87-10.06-.26-5.71-.32-7.43-.32-21.89s.06-16.18.32-21.89c.24-5.28,1.12-8.15,1.87-10.06.98-2.53,2.16-4.33,4.05-6.23,1.9-1.9,3.7-3.07,6.23-4.05,1.91-.74,4.78-1.63,10.06-1.87,5.71-.26,7.43-.32,21.89-.32M54.18,0c-14.71,0-16.56.06-22.34.33-5.77.26-9.7,1.18-13.15,2.52-3.56,1.38-6.58,3.24-9.6,6.25-3.01,3.01-4.86,6.03-6.25,9.6-1.34,3.45-2.26,7.38-2.52,13.15-.26,5.78-.33,7.62-.33,22.34s.06,16.56.33,22.34c.26,5.77,1.18,9.7,2.52,13.15,1.38,3.56,3.24,6.58,6.25,9.6,3.01,3.01,6.03,4.86,9.6,6.25,3.45,1.34,7.38,2.26,13.15,2.52,5.78.26,7.62.33,22.34.33s16.56-.06,22.34-.33c5.77-.26,9.7-1.18,13.15-2.52,3.56-1.38,6.58-3.24,9.6-6.25s4.86-6.03,6.25-9.6c1.34-3.45,2.26-7.38,2.52-13.15.26-5.78.33-7.62.33-22.34s-.06-16.56-.33-22.34c-.26-5.77-1.18-9.7-2.52-13.15-1.38-3.56-3.24-6.58-6.25-9.6-3.01-3.01-6.03-4.86-9.6-6.25-3.45-1.34-7.38-2.26-13.15-2.52-5.78-.26-7.62-.33-22.34-.33"/>
  <path class="cls-1" d="M54.18,26.36c-15.36,0-27.82,12.46-27.82,27.82s12.46,27.82,27.82,27.82,27.82-12.46,27.82-27.82-12.46-27.82-27.82-27.82M54.18,72.24c-9.97,0-18.06-8.09-18.06-18.06s8.08-18.06,18.06-18.06,18.06,8.08,18.06,18.06-8.08,18.06-18.06,18.06"/>
  <path class="cls-1" d="M89.6,25.26c0,3.59-2.91,6.5-6.5,6.5s-6.5-2.91-6.5-6.5,2.91-6.5,6.5-6.5,6.5,2.91,6.5,6.5"/>
</svg>