<?xml version="1.0" encoding="UTF-8"?>
<svg id="Capa_1" data-name="Capa 1" xmlns="http://www.w3.org/2000/svg" viewBox="0 0 992.77 992.77">
  <defs>
    <style>
      .cls-1 {
        fill: #fff;
      }
    </style>
  </defs>
  <path class="cls-1" d="M953.72,303.14c-25.01-59.12-60.78-112.2-106.34-157.75-45.56-45.56-98.63-81.34-157.75-106.34C628.37,13.14,563.36,0,496.38,0s-131.99,13.14-193.24,39.05c-59.12,25.01-112.2,60.78-157.75,106.34-45.56,45.56-81.34,98.63-106.34,157.75C13.14,364.4,0,429.41,0,496.38s13.14,131.99,39.05,193.24c25.01,59.12,60.78,112.2,106.34,157.75,45.56,45.56,98.63,81.34,157.75,106.34,61.26,25.91,126.27,39.05,193.24,39.05s131.99-13.14,193.24-39.05c59.12-25.01,112.2-60.78,157.75-106.34,45.56-45.56,81.34-98.63,106.34-157.75,25.91-61.25,39.05-126.27,39.05-193.24s-13.14-131.99-39.05-193.24ZM496.38,901.77c-223.89,0-405.38-181.5-405.38-405.38S272.5,91,496.38,91s405.38,181.5,405.38,405.38-181.5,405.38-405.38,405.38Z"/>
  <path class="cls-1" d="M504.61,322.02c18.89,0,35.92-7.21,49.25-20.85,13.37-13.71,20.15-30.27,20.15-49.25s-6.83-35.57-20.33-49.08c-13.5-13.48-30-20.32-49.06-20.32s-35.54,6.78-49.25,20.16c-13.64,13.32-20.84,30.34-20.84,49.24s6.96,35.7,20.68,49.42c13.72,13.72,30.35,20.68,49.42,20.68Z"/>
  <path class="cls-1" d="M566.43,719.42c-4.26-2.03-4.22-3.07-4.13-4.95l.02-.44v-322.58h-165.6v62.58h20c21.61,0,32.22,3.17,37.32,5.83,4.77,2.49,4.77,4.37,4.77,6.55v247.12c0,2.01,0,3.59-4.61,5.94-5.13,2.62-15.79,5.73-37.48,5.73h-20v64.7h228.4v-64.7h-20c-21.94,0-33.14-3.14-38.69-5.79Z"/>
</svg>