<?xml version="1.0" encoding="UTF-8"?>
<svg id="Capa_1" xmlns="http://www.w3.org/2000/svg" version="1.1" viewBox="0 0 1024 1024">
  <!-- Generator: Adobe Illustrator 29.4.0, SVG Export Plug-In . SVG Version: 2.1.0 Build 152)  -->
  <path d="M545,992.7c-78.35,0-146.46-18.07-196.97-52.25-44.9-30.4-75.07-85.96-75.07-138.25,0-60.01,27.57-108.83,81.94-145.11,16.73-11.96,55.17-32.7,75.83-43.83l8.88-4.81,68.55-32.91c10.3-4.8,48.3-24.75,81.84-42.35,0,0,26.83-14.09,36.86-19.33-17.67-8.99-301.52-142.56-322.43-152.31l-5.57-2.61-3.02-5.34c-.68-1.21-16.35-29.79,2.91-68.3,18.58-37.19,42.08-42.75,54.43-42.75,6.17,0,10.48,1.31,12.51,2.09l1.53.58,1.46.89c32.77,19.51,145.27,80.67,244.52,134.65,98.77,53.7,184.06,100.08,197.83,109.02h0c5.46,3.55,8.75,9.61,8.75,16.12v20.39c0,6.81-3.61,13.12-9.48,16.57h0c-45.3,26.63-120.05,68.44-192.35,108.88l-5,2.8c-72.92,40.77-141.8,79.29-169.39,96.11-38.84,23.32-54.68,40.22-54.68,58.35,0,43.68,80.46,52.84,147.97,52.84,196.39,0,350.22-148.59,350.22-338.29s-178.89-355.94-382.83-355.94S149.65,314.2,149.65,508.6c0,78,21.33,151.23,65.19,223.86l.44.76c.95,1.78,8.68,17.1,2.34,35.13-4.41,12.57-15.12,19.82-27.52,28.21-2.04,1.38-4.15,2.81-6.3,4.31-17.2,11.98-33.99,18.05-49.89,18.05-24.03,0-40.74-14.09-48.35-27.28-47.01-81.38-68.91-170.23-68.91-279.65,0-132.35,49.83-254.42,140.31-343.73C246.43,79.95,367.34,31.3,497.43,31.3s262.31,50.46,358.51,142.09c97.64,93,151.42,217.83,151.42,351.52s-46.82,249.45-131.82,335.19c-84.78,85.51-202.17,132.6-330.54,132.6Z"/>
</svg>