<?xml version="1.0" encoding="UTF-8"?>
<svg id="Capa_1" data-name="Capa 1" xmlns="http://www.w3.org/2000/svg" viewBox="0 0 102.41 128">
  <defs>
    <style>
      .cls-1 {
        fill: #fff;
      }
    </style>
  </defs>
  <path class="cls-1" d="M69.69,20.44c4.38-5.42,7.35-12.95,6.54-20.44-6.32.25-13.98,4.28-18.53,9.68-4.06,4.81-7.62,12.45-6.67,19.81,7.06.56,14.26-3.65,18.66-9.06Z"/>
  <path class="cls-1" d="M85.53,68.01c-.05-5.13,1.23-9.41,3.02-12.88,3.88-7.52,10.15-11.24,10.56-11.51-7.4-10.99-18.91-12.51-23.01-12.68-9.8-1.01-19.1,5.87-24.07,5.87s-12.64-5.73-20.75-5.57c-10.68.16-20.52,6.32-26.02,16.05-1.71,3.02-2.96,6.26-3.81,9.65-4.67,18.57,2.64,41.41,11.78,54.85,5.29,7.77,11.58,16.51,19.85,16.2,7.97-.32,10.98-5.25,20.61-5.25s12.34,5.25,20.77,5.08c8.56-.16,14-7.92,19.24-15.72,6.06-9.02,8.56-17.76,8.71-18.21-.19-.09-16.71-6.53-16.88-25.89Z"/>
</svg>