<?xml version="1.0" encoding="UTF-8"?>
<svg id="Capa_1" data-name="Capa 1" xmlns="http://www.w3.org/2000/svg" viewBox="0 0 103.98 112.61">
  <defs>
    <style>
      .cls-1 {
        fill: #fff;
      }
    </style>
  </defs>
  <path class="cls-1" d="M93.75,48.62C66.11,32.65,13.83,1.62,11.6.72,4.43-2.16,0,4.2,0,9.96v92.21c0,5.76,5.43,13.19,13.04,9.42,33.93-16.81,76.7-38.59,81.48-40.94,7.76-3.82,17.05-11.74-.77-22.03ZM56.54,53.47c-.42.37-.79.3-1.55-.28-3.46-2.63-6.92-5.27-10.38-7.9-.13-.1-.27-.19-.47-.32-.18,1.1-.37,2.13-.54,3.16-1.12,6.7-2.24,13.39-3.36,20.09-.43,2.58-.89,5.15-1.28,7.74-.43,2.85-1.93,4.97-4.29,6.54-2.37,1.57-5.02,2.36-7.83,2.64-.19.02-.37.07-.55.11h-2.94c-1.09-.19-2.19-.33-3.26-.59-2.71-.67-5.18-1.82-7.1-3.93-2.99-3.28-2.76-7.52.51-10.53,2.26-2.09,4.98-3.2,7.97-3.69,4.03-.66,7.95-.26,11.67,1.54.1.05.2.08.35.13.39-2.22.78-4.4,1.16-6.58,1.19-6.72,2.37-13.44,3.55-20.17.77-4.35,1.55-8.7,2.31-13.05.08-.47.27-.81.7-1.01h.57c.25.32.53.62.74.97,4.65,7.85,9.3,15.7,13.94,23.55.46.78.48,1.22.08,1.57h0Z"/>
</svg>