<?xml version="1.0" encoding="UTF-8"?>
<svg id="Capa_1" xmlns="http://www.w3.org/2000/svg" version="1.1" viewBox="0 0 1024 1024">
  <!-- Generator: Adobe Illustrator 29.4.0, SVG Export Plug-In . SVG Version: 2.1.0 Build 152)  -->
  <defs>
    <style>
      .st0 {
        fill: #1c1c1c;
      }
    </style>
  </defs>
  <path class="st0" d="M992.98,281.89c-15.25-36.07-37.07-68.44-64.86-96.23-27.79-27.78-60.16-49.61-96.22-64.86-37.37-15.8-77.03-23.82-117.87-23.82h-404.05c-40.85,0-80.5,8.01-117.87,23.82-14.38,6.08-28.13,13.25-41.28,21.38-19.83,12.27-38.23,26.77-54.94,43.48-20.91,20.91-38.33,44.48-52.21,70.22-3.45,6.4-6.74,12.89-9.74,19.56-.97,2.15-1.99,4.27-2.91,6.45-6.7,15.83-11.9,32.08-15.79,48.65-5.28,22.55-8.03,45.67-8.03,69.22h0v183.44c0,40.85,8.01,80.5,23.82,117.87,15.25,36.07,37.07,68.44,64.86,96.23,27.79,27.78,60.16,49.61,96.22,64.86,37.37,15.8,77.03,23.82,117.87,23.82h404.05c40.85,0,80.5-8.01,117.87-23.82,13.52-5.72,26.53-12.36,38.97-19.9,20.73-12.56,39.89-27.6,57.25-44.96,25.85-25.84,46.45-55.69,61.49-88.75,1.13-2.49,2.31-4.95,3.37-7.47,15.81-37.37,23.82-77.02,23.82-117.87h0v-183.44c0-40.85-8.01-80.5-23.82-117.87ZM80.77,583.19v-70.38c.15-1.61.25-3.24.25-4.91v-46.96h-.25v-61.19c0-23,3.37-45.48,9.86-66.88.35-1.16.79-2.28,1.16-3.44,8.55-26.63,21.98-51.5,39.84-73.56,5.09-6.29,10.47-12.39,16.27-18.19,43.29-43.29,100.85-67.14,162.07-67.14h342.34v.45h47.07c2.24,0,4.41-.18,6.54-.45h8.1c61.22,0,118.78,23.84,162.07,67.14,43.29,43.29,67.13,100.86,67.13,162.08v70.38c-.15,1.61-.25,3.24-.25,4.91v46.96h.25v61.19c0,22.98-3.36,45.45-9.85,66.84-2.66,8.78-5.86,17.37-9.56,25.75l-163.87-163.87-61.11-61.11-61.11,61.11-155.04,155.04-92.38-92.38-61.11-61.11-61.11,61.11-146.31,136.99c-.35.35-.69.71-1.03,1.07-25.99-37.83-39.98-82.55-39.98-129.43ZM736.5,811.31c-7.42.72-14.92,1.09-22.47,1.09h-342.34v-.45h-47.07c-2.24,0-4.41.18-6.54.45h-8.1c-46.25,0-90.41-13.62-127.91-38.94.27-.27.55-.52.82-.8l146.31-136.99,111.43,111.43c16.35,16.35,37.8,22.31,52.26,15.79,11.37-1.52,23.75-7.67,34.09-18.01l171.87-171.87,171.87,171.87c.96.96,1.95,1.88,2.94,2.77-37.6,36.52-85.54,58.67-137.15,63.66Z"/>
  <circle class="st0" cx="337.22" cy="364.95" r="126.53" transform="translate(-159.29 345.34) rotate(-45)"/>
</svg>