<?xml version="1.0" encoding="UTF-8"?>
<svg id="Capa_1" data-name="Capa 1" xmlns="http://www.w3.org/2000/svg" viewBox="0 0 943.04 961.37">
  <defs>
    <style>
      .cls-1 {
        fill: #fff;
      }
    </style>
  </defs>
  <path class="cls-1" d="M396.61,0H42.48C19.02,0,0,19.02,0,42.48v354.13c0,23.46,19.02,42.48,42.48,42.48h354.13c23.46,0,42.48-19.02,42.48-42.48V42.48c0-23.46-19.02-42.48-42.48-42.48ZM385.32,342.85c0,23.46-19.02,42.48-42.48,42.48H96.24c-23.46,0-42.48-19.02-42.48-42.48V96.24c0-23.46,19.02-42.48,42.48-42.48h246.61c23.46,0,42.48,19.02,42.48,42.48v246.61Z"/>
  <path class="cls-1" d="M900.56,0h-354.13c-23.46,0-42.48,19.02-42.48,42.48v354.13c0,23.46,19.02,42.48,42.48,42.48h354.13c23.46,0,42.48-19.02,42.48-42.48V42.48c0-23.46-19.02-42.48-42.48-42.48ZM889.28,342.85c0,23.46-19.02,42.48-42.48,42.48h-246.61c-23.46,0-42.48-19.02-42.48-42.48V96.24c0-23.46,19.02-42.48,42.48-42.48h246.61c23.46,0,42.48,19.02,42.48,42.48v246.61Z"/>
  <path class="cls-1" d="M396.61,522.29H42.48c-23.46,0-42.48,19.02-42.48,42.48v354.13c0,23.46,19.02,42.48,42.48,42.48h354.13c23.46,0,42.48-19.02,42.48-42.48v-354.13c0-23.46-19.02-42.48-42.48-42.48ZM385.32,865.13c0,23.46-19.02,42.48-42.48,42.48H96.24c-23.46,0-42.48-19.02-42.48-42.48v-246.61c0-23.46,19.02-42.48,42.48-42.48h246.61c23.46,0,42.48,19.02,42.48,42.48v246.61Z"/>
  <path class="cls-1" d="M900.56,522.29h-354.13c-23.46,0-42.48,19.02-42.48,42.48v354.13c0,23.46,19.02,42.48,42.48,42.48h354.13c23.46,0,42.48-19.02,42.48-42.48v-354.13c0-23.46-19.02-42.48-42.48-42.48ZM889.28,865.13c0,23.46-19.02,42.48-42.48,42.48h-246.61c-23.46,0-42.48-19.02-42.48-42.48v-246.61c0-23.46,19.02-42.48,42.48-42.48h246.61c23.46,0,42.48,19.02,42.48,42.48v246.61Z"/>
</svg>