<?xml version="1.0" encoding="UTF-8"?>
<svg id="Capa_1" data-name="Capa 1" xmlns="http://www.w3.org/2000/svg" viewBox="0 0 924.69 947.58">
  <defs>
    <style>
      .cls-1 {
        fill: #fff;
      }
    </style>
  </defs>
  <rect class="cls-1" width="439.26" height="439.26" rx="56.27" ry="56.27"/>
  <path class="cls-1" d="M47,947.58c-25.92,0-47-21.08-47-47v-310.82c0-25.92,21.08-47,47-47h310.82c25.92,0,47,21.08,47,47v310.82c0,25.92-21.08,47-47,47H47ZM94.19,609.38c-15.2,0-27.56,12.37-27.56,27.56v216.45c0,15.2,12.37,27.56,27.56,27.56h216.45c15.2,0,27.56-12.37,27.56-27.56v-216.45c0-15.2-12.37-27.56-27.56-27.56H94.19Z"/>
  <path class="cls-1" d="M909.58,789.83h-118.22V16.44c0-9.08-10.22-16.44-22.84-16.44h-140.61c-12.61,0-22.84,7.36-22.84,16.44v773.39h-118.22c-13.43,0-20.16,11.69-10.66,18.53l173.16,124.66c26.98,19.42,70.73,19.42,97.71,0l173.16-124.66c9.5-6.84,2.77-18.53-10.66-18.53Z"/>
</svg>