<?xml version="1.0" encoding="UTF-8"?>
<svg id="Capa_1" data-name="Capa 1" xmlns="http://www.w3.org/2000/svg" viewBox="0 0 972.83 947.58">
  <defs>
    <style>
      .cls-1 {
        fill: #fff;
      }
    </style>
  </defs>
  <rect class="cls-1" x="534.56" width="438.27" height="438.27" rx="56.15" ry="56.15"/>
  <rect class="cls-1" y="0" width="439.26" height="439.26" rx="56.27" ry="56.27"/>
  <path class="cls-1" d="M47,947.58c-25.92,0-47-21.08-47-47v-310.82c0-25.92,21.08-47,47-47h310.82c25.92,0,47,21.08,47,47v310.82c0,25.92-21.08,47-47,47H47ZM94.19,609.38c-15.2,0-27.56,12.37-27.56,27.56v216.45c0,15.2,12.37,27.56,27.56,27.56h216.45c15.2,0,27.56-12.37,27.56-27.56v-216.45c0-15.2-12.37-27.56-27.56-27.56H94.19Z"/>
  <path class="cls-1" d="M913.28,788.45h-89.26v-229.11c0-9.16-7.72-16.58-17.24-16.58h-106.17c-9.52,0-17.24,7.42-17.24,16.58v229.11h-89.26c-10.14,0-15.22,11.79-8.05,18.69l130.75,125.75c20.37,19.59,53.4,19.59,73.77,0l130.75-125.75c7.17-6.9,2.09-18.69-8.05-18.69Z"/>
</svg>