<?xml version="1.0" encoding="UTF-8"?>
<svg id="Capa_1" data-name="Capa 1" xmlns="http://www.w3.org/2000/svg" viewBox="0 0 975.52 947.58">
  <defs>
    <style>
      .cls-1 {
        fill: #fff;
      }
    </style>
  </defs>
  <rect class="cls-1" x="537.25" width="438.27" height="438.27" rx="56.15" ry="56.15"/>
  <rect class="cls-1" x="553.97" y="542.76" width="404.82" height="404.82" rx="51.86" ry="51.86"/>
  <rect class="cls-1" y="0" width="439.26" height="439.26" rx="56.27" ry="56.27"/>
  <path class="cls-1" d="M47,947.58c-25.92,0-47-21.08-47-47v-310.82c0-25.92,21.08-47,47-47h310.82c25.92,0,47,21.08,47,47v310.82c0,25.92-21.08,47-47,47H47ZM94.19,609.38c-15.2,0-27.56,12.37-27.56,27.56v216.45c0,15.2,12.37,27.56,27.56,27.56h216.45c15.2,0,27.56-12.37,27.56-27.56v-216.45c0-15.2-12.37-27.56-27.56-27.56H94.19Z"/>
</svg>