<?xml version="1.0" encoding="UTF-8"?>
<svg id="Capa_1" xmlns="http://www.w3.org/2000/svg" version="1.1" viewBox="0 0 128 128">
  <!-- Generator: Adobe Illustrator 29.4.0, SVG Export Plug-In . SVG Version: 2.1.0 Build 152)  -->
  <defs>
    <style>
      .st0 {
        fill: #262626;
      }
    </style>
  </defs>
  <path class="st0" d="M13.36,82.99v-34.28c0-2.68,2.16-4.84,4.83-4.84h14.6v12.47l18.52-18.53-18.52-18.52v12.51h-14.6c-9.32,0-16.9,7.59-16.9,16.91v34.28c0,9.33,7.58,16.91,16.9,16.91h51.33v-12.08H18.19c-2.67,0-4.83-2.16-4.83-4.83Z"/>
  <path class="st0" d="M109.82,31.8h-52.52v12.08h52.52c2.66,0,4.83,2.16,4.83,4.84v34.28c0,2.67-2.16,4.83-4.83,4.83h-13.04v-12.34l-18.53,18.52,18.53,18.53v-12.63h13.04c9.32,0,16.9-7.58,16.9-16.91v-34.28c0-9.33-7.58-16.91-16.9-16.91Z"/>
</svg>