<?xml version="1.0" encoding="UTF-8"?>
<svg id="Capa_1" data-name="Capa 1" xmlns="http://www.w3.org/2000/svg" viewBox="0 0 125.43 93.25">
  <defs>
    <style>
      .cls-1 {
        fill: #fff;
      }
    </style>
  </defs>
  <path class="cls-1" d="M12.07,63.7V29.42c0-2.68,2.16-4.84,4.83-4.84h14.6v12.47l18.52-18.53L31.5,0v12.51h-14.6C7.58,12.51,0,20.1,0,29.42v34.28c0,9.33,7.58,16.91,16.9,16.91h51.33v-12.08H16.9c-2.67,0-4.83-2.16-4.83-4.83Z"/>
  <path class="cls-1" d="M108.53,12.51h-52.52v12.08h52.52c2.66,0,4.83,2.16,4.83,4.84v34.28c0,2.67-2.16,4.83-4.83,4.83h-13.04v-12.34l-18.53,18.52,18.53,18.53v-12.63h13.04c9.32,0,16.9-7.58,16.9-16.91V29.43c0-9.33-7.58-16.91-16.9-16.91h0Z"/>
</svg>