<?xml version="1.0" encoding="UTF-8"?>
<svg id="Capa_1" data-name="Capa 1" xmlns="http://www.w3.org/2000/svg" viewBox="0 0 104.17 106.59">
  <defs>
    <style>
      .cls-1 {
        fill: #fff;
      }
    </style>
  </defs>
  <path class="cls-1" d="M96.69,95.72l-34.9-50.71-3.95-5.73L32.87,3.01l-2.07-3.01H.12l7.48,10.87,33.2,48.23,3.95,5.73,26.67,38.76,2.07,3h30.68l-7.48-10.87ZM77.13,99.65l-27.71-40.26-3.95-5.73L13.32,6.94h13.83l26.01,37.78,3.95,5.73,33.86,49.2h-13.83Z"/>
  <polygon class="cls-1" points="45.48 53.66 49.42 59.39 44.75 64.84 8.85 106.59 0 106.59 40.8 59.11 45.48 53.66"/>
  <polygon class="cls-1" points="100.47 0 61.78 45.01 57.1 50.45 53.16 44.72 57.84 39.28 84.05 8.77 91.62 0 100.47 0"/>
</svg>