<?xml version="1.0" encoding="UTF-8"?>
<svg id="Capa_1" data-name="Capa 1" xmlns="http://www.w3.org/2000/svg" viewBox="0 0 997.94 842.39">
  <defs>
    <style>
      .cls-1 {
        fill: #fff;
      }
    </style>
  </defs>
  <g>
    <path class="cls-1" d="M677.95,375.53h-133.33v-133.34c0-27.9-17.67-49.76-40.24-49.76h-10.79c-22.58,0-40.25,21.86-40.25,49.76v133.34h-133.34c-27.9,0-49.76,17.68-49.76,40.25v10.79c0,22.57,21.86,40.25,49.76,40.25h133.34v133.33c0,27.9,17.67,49.76,40.25,49.76h10.79c22.57,0,40.24-21.86,40.24-49.76v-133.33h133.33c27.9,0,49.76-17.68,49.76-40.25v-10.79c0-22.57-21.86-40.25-49.76-40.25Z"/>
    <path class="cls-1" d="M963.2,360.67h-9.32c-19.49,0-34.75,18.87-34.75,42.96v50.14h.27v65.33c0,65.37-25.45,126.82-71.67,173.05-46.22,46.22-107.68,71.68-173.05,71.68h-351.42c-65.36,0-126.82-25.46-173.04-71.68-46.22-46.22-71.68-107.68-71.68-173.05v-195.85c0-65.36,25.46-126.81,71.68-173.03s107.68-71.68,173.04-71.68h285.53v.48h50.26c24.16,0,43.09-15.3,43.09-34.84v-9.34c0-19.53-18.92-34.84-43.09-34.84h-335.79c-43.61,0-85.95,8.55-125.85,25.43-38.5,16.28-73.07,39.59-102.73,69.26-29.67,29.67-52.96,64.23-69.25,102.73C8.55,237.32,0,279.66,0,323.27v195.85c0,43.61,8.55,85.95,25.43,125.85,16.29,38.51,39.58,73.07,69.25,102.74,29.67,29.66,64.23,52.96,102.73,69.25,39.9,16.87,82.24,25.43,125.85,25.43h351.42c43.62,0,85.96-8.56,125.85-25.43,38.5-16.29,73.07-39.59,102.73-69.25s52.97-64.23,69.25-102.74c16.87-39.89,25.43-82.23,25.43-125.84v-115.47c0-24.1-15.27-42.96-34.75-42.96v-.03Z"/>
  </g>
  <g>
    <path class="cls-1" d="M677.95,375.53h-133.33v-133.34c0-27.9-17.67-49.76-40.24-49.76h-10.79c-22.58,0-40.25,21.86-40.25,49.76v133.34h-133.34c-27.9,0-49.76,17.68-49.76,40.25v10.79c0,22.57,21.86,40.25,49.76,40.25h133.34v133.33c0,27.9,17.67,49.76,40.25,49.76h10.79c22.57,0,40.24-21.86,40.24-49.76v-133.33h133.33c27.9,0,49.76-17.68,49.76-40.25v-10.79c0-22.57-21.86-40.25-49.76-40.25Z"/>
    <path class="cls-1" d="M963.2,360.67h-9.32c-19.49,0-34.75,18.87-34.75,42.96v50.14h.27v65.33c0,65.37-25.45,126.82-71.67,173.05-46.22,46.22-107.68,71.68-173.05,71.68h-351.42c-65.36,0-126.82-25.46-173.04-71.68-46.22-46.22-71.68-107.68-71.68-173.05v-195.85c0-65.36,25.46-126.81,71.68-173.03s107.68-71.68,173.04-71.68h285.53v.48h50.26c24.16,0,43.09-15.3,43.09-34.84v-9.34c0-19.53-18.92-34.84-43.09-34.84h-335.79c-43.61,0-85.95,8.55-125.85,25.43-38.5,16.28-73.07,39.59-102.73,69.26-29.67,29.67-52.96,64.23-69.25,102.73C8.55,237.32,0,279.66,0,323.27v195.85c0,43.61,8.55,85.95,25.43,125.85,16.29,38.51,39.58,73.07,69.25,102.74,29.67,29.66,64.23,52.96,102.73,69.25,39.9,16.87,82.24,25.43,125.85,25.43h351.42c43.62,0,85.96-8.56,125.85-25.43,38.5-16.29,73.07-39.59,102.73-69.25s52.97-64.23,69.25-102.74c16.87-39.89,25.43-82.23,25.43-125.84v-115.47c0-24.1-15.27-42.96-34.75-42.96v-.03Z"/>
  </g>
</svg>