<?xml version="1.0" encoding="UTF-8"?>
<svg id="Capa_1" data-name="Capa 1" xmlns="http://www.w3.org/2000/svg" viewBox="0 0 120.24 124.13">
  <defs>
    <style>
      .cls-1 {
        fill: #fff;
      }
    </style>
  </defs>
  <path class="cls-1" d="M70.31,67.98c-.25-2.51,2.43-3.72,3.82-5.46,5.06-6.35,9.4-13.32,11.36-21.31.66-2.68,1.36-12.05,2.06-13.15,1.36-2.15,5.72-1.68,5.88,2.45.35,9.5-8.83,25.94-15.44,32.67-1.04,1.06-6.48,5.95-7.68,4.8Z"/>
  <path class="cls-1" d="M118.62,15.69c-9.11-.71-18.15-1.77-27.08-3.53-7.24-1.42-26.61-12.16-31.41-12.16-5.49,0-28.47,11.79-37.07,13.28-7.47,1.29-15.19,2.11-22.82,2.26-1.46,30.62,3.45,62.91,26.85,86.28,6.09,6.09,21.55,18.19,29.68,21.47,1.36.55,1.57,1.19,3.37.62,3.03-.96,17.02-10.87,20.22-13.36,19.75-15.39,33.95-39.4,37.64-62.65,1.63-10.27.6-20.66,2.24-30.9l-1.6-1.3h-.02Z"/>
</svg>