<?xml version="1.0" encoding="UTF-8"?>
<svg id="Capa_1" data-name="Capa 1" xmlns="http://www.w3.org/2000/svg" viewBox="0 0 900.87 974.63">
  <defs>
    <style>
      .cls-1 {
        fill: #fff;
      }
    </style>
  </defs>
  <path class="cls-1" d="M804.9,404.71l-99.91,44.95v-153.68l155.74-70.06c34.26-15.41,49.55-55.7,34.13-89.96-15.41-34.27-55.7-49.55-89.96-34.14l-99.91,44.95v-78.72C704.99,30.48,674.52.01,636.95.01s-68.04,30.47-68.04,68.04v139.94l-236.95,106.6V68.04c0-37.57-30.47-68.04-68.04-68.04s-68.04,30.47-68.04,68.04v307.75l-155.74,70.06c-34.26,15.41-49.55,55.7-34.13,89.96,15.41,34.27,55.7,49.55,89.96,34.13l99.91-44.95v153.68l-155.74,70.06c-34.26,15.41-49.55,55.7-34.13,89.96,15.41,34.26,55.7,49.55,89.96,34.13l99.91-44.95v78.72c0,37.57,30.47,68.04,68.04,68.04s68.04-30.47,68.04-68.04v-139.94l236.95-106.6v246.53c0,37.57,30.47,68.04,68.04,68.04s68.04-30.47,68.04-68.04v-307.75l155.74-70.06c34.26-15.41,49.55-55.7,34.13-89.96-15.41-34.26-55.7-49.55-89.96-34.14v.04ZM331.97,617.47v-153.68l236.95-106.6v153.68l-236.95,106.6h0Z"/>
</svg>