<?xml version="1.0" encoding="UTF-8"?>
<svg id="Capa_1" xmlns="http://www.w3.org/2000/svg" version="1.1" viewBox="0 0 1024 1024">
  <!-- Generator: Adobe Illustrator 29.4.0, SVG Export Plug-In . SVG Version: 2.1.0 Build 152)  -->
  <defs>
    <style>
      .st0 {
        fill: #272828;
      }
    </style>
  </defs>
  <path class="st0" d="M866.46,429.38l-99.91,44.95v-153.68s155.74-70.06,155.74-70.06c34.26-15.41,49.55-55.7,34.13-89.96-15.41-34.27-55.7-49.55-89.96-34.14l-99.91,44.95v-78.72c0-37.57-30.47-68.04-68.04-68.04-37.57,0-68.04,30.47-68.04,68.04v139.94s-236.95,106.6-236.95,106.6V92.71c0-37.57-30.47-68.04-68.04-68.04-37.57,0-68.04,30.47-68.04,68.04v307.75s-155.74,70.06-155.74,70.06c-34.26,15.41-49.55,55.7-34.13,89.96,15.41,34.27,55.7,49.55,89.96,34.13l99.91-44.95v153.68s-155.74,70.06-155.74,70.06c-34.26,15.41-49.55,55.7-34.13,89.96,15.41,34.26,55.7,49.55,89.96,34.13l99.91-44.95v78.72c0,37.57,30.47,68.04,68.04,68.04,37.57,0,68.04-30.47,68.04-68.04v-139.94s236.95-106.6,236.95-106.6v246.53c0,37.57,30.47,68.04,68.04,68.04,37.57,0,68.04-30.47,68.04-68.04v-307.75s155.74-70.06,155.74-70.06c34.26-15.41,49.55-55.7,34.13-89.96-15.41-34.26-55.7-49.55-89.96-34.14ZM393.53,642.14v-153.68s236.95-106.6,236.95-106.6v153.68s-236.95,106.6-236.95,106.6Z"/>
</svg>