<?xml version="1.0" encoding="UTF-8"?>
<svg id="Capa_1" data-name="Capa 1" xmlns="http://www.w3.org/2000/svg" viewBox="0 0 126.77 126.8">
  <defs>
    <style>
      .cls-1 {
        fill: #fff;
        fill-rule: evenodd;
      }
    </style>
  </defs>
  <path class="cls-1" d="M126.74,60.19C125.9,26.8,98.39,0,64.54,0S3.82,26.19,2.36,59.06c-.03.9-.06,1.81-.06,2.71,0,11.68,3.26,22.58,8.91,31.9L0,126.8l34.47-10.96c8.92,4.89,19.17,7.69,30.07,7.69,34.38,0,62.23-27.65,62.23-61.77,0-.52,0-1.05-.03-1.57ZM64.54,113.69c-10.63,0-20.51-3.15-28.79-8.59l-20.1,6.41,6.53-19.29c-6.26-8.57-9.96-19.08-9.96-30.45,0-1.69.09-3.38.26-5.04,2.56-26.28,24.94-46.88,52.07-46.88s50.06,21.12,52.15,47.87c.12,1.34.17,2.68.17,4.05,0,28.64-23.48,51.92-52.33,51.92Z"/>
  <path class="cls-1" d="M93.06,74.24c-1.54-.76-9.03-4.43-10.43-4.92-1.4-.52-2.42-.76-3.44.76-1.02,1.51-3.96,4.92-4.84,5.91-.9,1.02-1.78,1.14-3.32.38-1.52-.76-6.44-2.33-12.27-7.52-4.52-3.99-7.6-8.94-8.48-10.46-.87-1.52-.09-2.33.67-3.09.7-.7,1.52-1.78,2.3-2.65.21-.26.38-.5.55-.73.35-.55.61-1.08.96-1.81.52-1.02.26-1.89-.12-2.65-.38-.76-3.44-8.22-4.72-11.25-1.25-3.03-2.53-2.51-3.44-2.51s-1.89-.14-2.91-.14-2.68.38-4.08,1.89c-1.4,1.52-5.33,5.19-5.33,12.65,0,1.75.32,3.5.79,5.16,1.54,5.33,4.87,9.73,5.45,10.49.76.99,10.55,16.78,26.05,22.87,15.53,6.03,15.53,4.02,18.33,3.76,2.8-.23,9.03-3.64,10.28-7.2,1.28-3.53,1.28-6.56.9-7.2-.38-.61-1.4-.99-2.91-1.75Z"/>
</svg>