<?xml version="1.0" encoding="UTF-8"?>
<svg id="Capa_1" data-name="Capa 1" xmlns="http://www.w3.org/2000/svg" viewBox="0 0 127.34 94.5">
  <defs>
    <style>
      .cls-1 {
        fill: #fff;
      }
    </style>
  </defs>
  <path class="cls-1" d="M124.68,14.76c-1.46-5.81-5.78-10.38-11.26-11.94C103.49,0,63.67,0,63.67,0c0,0-39.82,0-49.75,2.82-5.48,1.55-9.79,6.13-11.26,11.94C0,25.28,0,47.25,0,47.25c0,0,0,21.97,2.66,32.49,1.46,5.81,5.78,10.38,11.26,11.94,9.93,2.82,49.75,2.82,49.75,2.82,0,0,39.82,0,49.75-2.82,5.48-1.55,9.79-6.13,11.26-11.94,2.66-10.53,2.66-32.49,2.66-32.49,0,0,0-21.97-2.66-32.49ZM50.65,67.19V27.31l33.28,19.94-33.28,19.94Z"/>
</svg>